<?xml version="1.0" encoding="UTF-8"?>
<svg id="Layer_1" data-name="Layer 1" xmlns="http://www.w3.org/2000/svg" viewBox="0 0 150 150">
  <defs>
    <style>
      .cls-1 {
        fill: #fff;
      }

      .cls-2 {
        fill: #00b3ff;
      }
    </style>
  </defs>
  <circle class="cls-2" cx="64.9" cy="65.8" r="56.32"/>
  <g>
    <path class="cls-1" d="m75.12,119.84c-24.69-.33-44.34-19.73-44.28-44.49.06-24.71,19.71-44.22,44.34-44.2,24.74.02,44.34,19.69,44.28,44.42-.05,24.64-19.67,43.99-44.34,44.28Zm.09-85.24c-22.46-.01-40.94,18.31-40.9,40.69.04,22.73,17.93,40.91,40.71,40.98,22.82.07,40.82-18,40.97-40.72.15-22.53-18.3-40.94-40.78-40.95Z"/>
    <path class="cls-1" d="m31.34,47.24c.25-1.08.56-2.48.89-3.87.7-3,1.3-6.02,2.13-8.98,2.73-9.66,12.2-15.49,22.03-13.55,3.97.78,7.9,1.78,11.85,2.67.1.02.2.06.3.08,1.05.25,1.84.77,1.73,1.98-.1,1.12-.92,1.49-1.92,1.64-5.42.81-10.59,2.41-15.47,4.92-7.17,3.69-13.02,8.88-17.68,15.44-.3.42-.58.85-.93,1.22-.55.58-1.23.73-1.97.4-.67-.31-.97-.88-.96-1.95Zm29.28-21.73c-11.95-4.3-22.48.9-24.02,14.97,11.65-10.18,11.86-10.32,24.02-14.97Z"/>
    <path class="cls-1" d="m97.04,130.44c-3.85-.03-7.88-1.57-12.05-2.37-1.11-.21-2.19-.52-3.29-.77-1-.23-1.73-.74-1.67-1.87.05-1.13.84-1.55,1.85-1.7,7.38-1.07,14.19-3.63,20.38-7.79,5.08-3.41,9.38-7.63,12.89-12.65.18-.25.35-.5.54-.75.57-.77,1.29-1.24,2.25-.84,1.05.43,1.19,1.34.97,2.32-.87,3.8-1.7,7.61-2.65,11.38-2.03,8.12-7.24,12.98-15.37,14.78-1.12.25-2.25.16-3.84.24Zm16.72-20.18c-6.71,7.21-14.63,12.26-24.14,15.09,11.07,4.14,22.32.05,24.14-15.09Z"/>
    <path class="cls-1" d="m46.95,119.27c-1.73-.39-3.73-.83-5.73-1.29-2.05-.47-4.1-.95-6.14-1.45-10.45-2.55-16.65-12.28-14.48-22.81.79-3.81,1.77-7.59,2.64-11.39.25-1.07.61-2.04,1.91-2.01,1.31.04,1.6,1.02,1.77,2.12,1.85,11.86,7.25,21.79,16.24,29.76,1.58,1.4,3.28,2.63,5,3.85.73.52,1.1,1.24.76,2.14-.28.76-.9,1.08-1.98,1.07Zm-6.5-5.14c-7.34-6.79-12.34-14.73-15.21-24.28-3.91,11.03-.4,22.12,15.21,24.28Z"/>
    <path class="cls-1" d="m130.12,53.02c0,4.37-1.55,8.45-2.36,12.66-.2,1.06-.51,2.09-.74,3.14-.23,1.06-.73,1.85-1.94,1.76-1.13-.08-1.51-.9-1.66-1.9-.81-5.47-2.44-10.68-4.98-15.6-3.68-7.11-8.83-12.92-15.35-17.55-.33-.24-.68-.46-1-.72-.7-.57-1.05-1.28-.64-2.17.4-.88,1.17-1.17,2.05-.96,4.88,1.16,9.89,1.89,14.62,3.61,7.18,2.61,12,9.86,12.01,17.72Zm-5.05,8.09c4.71-13.61-2.43-23.02-15.02-24.16,7.13,6.63,12.16,14.52,15.02,24.16Z"/>
    <path class="cls-1" d="m76.8,56.89c0,6.72-5.3,12.08-11.96,12.06-6.51-.02-11.94-5.46-11.95-11.98,0-6.61,5.45-12.09,12.02-12.06,6.58.03,11.88,5.38,11.89,11.98Zm-21.93,0c-.01,5.61,4.47,10.16,10,10.15,5.52-.01,10.04-4.57,10.05-10.14,0-5.54-4.42-9.98-9.96-10-5.68-.02-10.08,4.34-10.09,9.99Z"/>
    <path class="cls-1" d="m73.51,93.97c0-6.65,5.25-11.93,11.9-12,6.48-.06,11.99,5.43,12,11.96.01,6.62-5.47,12.12-12.05,12.07-6.59-.05-11.87-5.4-11.86-12.04Zm21.93.09c.02-5.62-4.44-10.17-9.98-10.17-5.52,0-10.15,4.63-10.11,10.11.05,5.57,4.46,10.01,9.97,10.03,5.68.02,10.1-4.33,10.12-9.97Z"/>
    <path class="cls-1" d="m93.66,77.11c-5.94.24-12.2-4.73-11.96-12.34.22-6.98,6.28-12.16,13.09-11.53.56.05,1.12.17,1.66.32.53.15.95.49.81,1.11-.13.59-.6.77-1.18.72-.81-.08-1.63-.2-2.45-.2-5.76-.01-10.39,4.84-10.06,10.53.34,5.77,5.47,10.06,11.26,9.42,5.73-.63,9.71-5.89,8.79-11.6-.13-.8-.76-1.96.49-2.19,1.31-.24,1.21,1.1,1.37,1.95,1.33,7.17-4.38,13.82-11.82,13.82Z"/>
    <path class="cls-1" d="m56.6,73.81c6.57,0,11.5,4.74,12.01,11.56.43,5.82-4.45,11.52-10.52,12.28-.3.04-.62.05-.92.03-.5-.02-.93-.23-1.02-.76-.11-.63.32-.96.85-1.09.75-.18,1.53-.21,2.26-.42,5.02-1.41,8.21-6.31,7.29-11.16-1.03-5.45-5.5-9.01-10.7-8.52-5.45.52-9.23,4.63-9.29,10.04,0,.83.48,2.22-.86,2.23-1.34.02-1.08-1.39-1.08-2.3-.01-6.59,5.35-11.9,11.98-11.9Z"/>
    <path class="cls-1" d="m81.66,75.45c0,3.66-2.92,6.57-6.57,6.52-3.62-.05-6.43-2.88-6.44-6.5,0-3.66,2.92-6.57,6.57-6.52,3.62.05,6.43,2.88,6.44,6.49Zm-6.48-4.52c-2.71-.01-4.55,1.81-4.56,4.5-.01,2.7,1.81,4.55,4.5,4.56,2.7.01,4.55-1.81,4.56-4.51.01-2.7-1.81-4.55-4.5-4.56Z"/>
    <path class="cls-1" d="m46.56,89.61c.52.01.82.28,1.02.65.62,1.13,1.45,2.09,2.34,3,.42.43.67.98.19,1.49-.49.51-1.04.29-1.49-.11-1.13-.98-2.03-2.15-2.65-3.51-.31-.69-.26-1.3.59-1.52Z"/>
    <path class="cls-1" d="m99.72,55.04c1.01.02,3.87,2.84,3.89,3.83,0,.4-.15.69-.51.85-.37.16-.71.05-.98-.21-1.03-.98-2.05-1.97-3.06-2.97-.27-.27-.34-.63-.19-.99.15-.37.46-.53.85-.51Z"/>
  </g>
</svg>