<?xml version="1.0" encoding="UTF-8"?>
<svg id="Layer_1" data-name="Layer 1" xmlns="http://www.w3.org/2000/svg" viewBox="0 0 150 150">
  <defs>
    <style>
      .cls-1 {
        fill: #fff;
      }

      .cls-2 {
        fill: #00b3ff;
      }
    </style>
  </defs>
  <circle class="cls-2" cx="90.8" cy="58.75" r="56.32"/>
  <g>
    <path class="cls-1" d="m71.02,27.74c7.61,0,15.22.01,22.83-.02,1.04,0,1.81.31,2.54,1.05,4.6,4.65,9.21,9.27,13.86,13.86.83.82,1.2,1.69,1.16,2.86-.06,2.38,0,4.77-.04,7.15-.02.9.29,1.21,1.19,1.2,2.96-.04,5.92-.02,8.88-.01,5.68,0,9.68,3.8,9.71,9.47.07,13.11.07,26.22,0,39.32-.03,5.61-4.03,9.44-9.62,9.46-2.77.01-5.54,0-8.3,0q-1.82,0-1.85,1.79c-.06,4.43-3.05,8.07-7.38,8.94-.56.11-1.14.13-1.72.13-17.95,0-35.9.01-53.85,0-5.16,0-9.09-3.95-9.15-9.14q-.02-1.72-1.79-1.73c-2.77,0-5.54,0-8.3,0-5.62-.02-9.64-3.8-9.67-9.4-.08-13.15-.07-26.29,0-39.44.03-5.61,4.04-9.4,9.65-9.41,2.96,0,5.92-.03,8.88.02.96.02,1.26-.31,1.25-1.26-.04-5.11-.02-10.22-.01-15.34.01-5.63,3.87-9.51,9.47-9.51,7.42,0,14.84,0,22.26,0Zm4.31,31.02c-6.38,0-12.76,0-19.15,0-9.03,0-18.07,0-27.1,0-1.29,0-2.45.24-3.38,1.17-.99.99-1.29,2.21-1.28,3.58.01,12.76,0,25.53,0,38.29,0,.46-.01.92.02,1.38.14,2.23,1.81,3.92,4.04,3.95,3.27.05,6.54,0,9.8.03.74,0,1.02-.27,1.02-1.02-.02-4.84-.02-9.69,0-14.53,0-.7-.27-.97-.96-.95-.96.03-1.92.03-2.88-.01-1.28-.06-2.25-1.06-2.29-2.3-.04-1.2.93-2.3,2.17-2.43.46-.05.92-.03,1.38-.03,24.11,0,48.21,0,72.32,0,1.92,0,3.84-.01,5.77,0,1.6.02,2.7,1,2.72,2.37.01,1.4-1.06,2.37-2.66,2.4-.73.01-1.47.06-2.19,0-1.05-.1-1.3.35-1.29,1.33.04,4.61.05,9.23,0,13.84-.01,1.11.4,1.37,1.41,1.35,2.81-.05,5.61-.01,8.42-.02,3.54,0,5.06-1.52,5.06-5.05,0-12.76,0-25.53,0-38.29,0-3.55-1.5-5.06-5.03-5.06-15.3,0-30.6,0-45.9,0Zm0,31.91c-9.88,0-19.75.02-29.63-.02-1.16,0-1.51.33-1.5,1.5.05,7.07.02,14.14.03,21.21,0,3.16,1.66,4.82,4.85,4.82,17.53,0,35.05,0,52.58,0,3.15,0,4.82-1.7,4.83-4.86,0-6.99,0-13.99,0-20.98q0-1.67-1.63-1.67c-9.84,0-19.68,0-29.52,0Zm-.04-36.83c5.73,0,11.46,0,17.19,0,4.27,0,8.54-.02,12.8.01.9,0,1.24-.29,1.21-1.2-.05-1.42-.04-2.85,0-4.27.03-.85-.31-1.16-1.15-1.14-1.88.04-3.77.04-5.65,0-4.45-.08-7.77-3.44-7.8-7.87-.01-1.85-.05-3.69.02-5.54.03-.97-.22-1.35-1.28-1.34-13.88.03-27.76.02-41.64.03-3.1,0-4.76,1.69-4.77,4.79,0,5,0,10,0,14.99,0,1.52,0,1.53,1.54,1.53,9.84,0,19.69,0,29.53,0Zm27.22-11.55c-1.91-1.88-3.82-3.76-5.7-5.61-.03,1.07-.16,2.33.09,3.57.24,1.16,1.04,1.91,2.22,2.02,1.17.11,2.35.02,3.39.02Z"/>
    <path class="cls-1" d="m120.41,71.2c0,3.73-2.92,6.7-6.61,6.73-3.66.03-6.68-2.97-6.69-6.65-.01-3.79,2.9-6.75,6.68-6.8,3.61-.05,6.63,3.01,6.63,6.72Zm-6.64,1.79c.98,0,1.78-.77,1.81-1.73.03-.96-.86-1.84-1.84-1.84-.94,0-1.79.82-1.82,1.75-.03.97.85,1.83,1.84,1.82Z"/>
    <path class="cls-1" d="m75.29,111.88c-7.27,0-14.53,0-21.8,0-1.68,0-2.69-.89-2.72-2.32-.03-1.28.85-2.29,2.14-2.42.42-.04.85-.02,1.27-.02,14.11,0,28.22,0,42.33,0,.38,0,.77-.01,1.15.01,1.35.1,2.28,1.11,2.26,2.43-.02,1.27-.93,2.25-2.25,2.31-1.15.05-2.31.02-3.46.02-6.31,0-12.61,0-18.92,0Z"/>
    <path class="cls-1" d="m75.35,101.74c-7.27,0-14.53,0-21.8,0-1.75,0-2.78-.91-2.78-2.38,0-1.23.86-2.22,2.08-2.37.38-.05.77-.03,1.15-.03,14.23,0,28.45,0,42.68,0,.38,0,.77-.02,1.15.03,1.22.15,2.08,1.13,2.09,2.37,0,1.23-.85,2.21-2.08,2.35-.42.05-.84.03-1.27.03-7.07,0-14.15,0-21.22,0Z"/>
  </g>
</svg>