<?xml version="1.0" encoding="UTF-8"?>
<svg id="Layer_1" data-name="Layer 1" xmlns="http://www.w3.org/2000/svg" viewBox="0 0 150 150">
  <defs>
    <style>
      .cls-1 {
        fill: #fff;
      }

      .cls-2 {
        fill: #00b3ff;
      }
    </style>
  </defs>
  <circle class="cls-2" cx="89.02" cy="75" r="56.32"/>
  <g>
    <path class="cls-1" d="m71.35,123.24c-2.44-.34-4.87-.65-7.27-1.22-18.49-4.39-32.92-19.52-36.05-38.3-2.86-17.15,2.19-31.85,14.78-43.81,7.17-6.81,15.83-10.91,25.64-12.17,16.54-2.12,30.71,2.91,42.18,15.03,6.82,7.21,10.76,15.91,12.25,25.71.14.95.24,1.91.36,2.87v7.87c-.22,1.51-.41,3.02-.67,4.52-3.24,18.68-17.6,33.89-36.08,38.28-2.4.57-4.84.88-7.27,1.22h-7.87Zm47.38-47.9c.18-23.89-19.42-43.46-43.31-43.54-23.92-.07-43.55,19.44-43.61,43.37-.06,23.92,19.46,43.54,43.39,43.58,23.92.05,43.64-19.49,43.53-43.42Z"/>
    <path class="cls-1" d="m79.79,71.8c1.86-2.54,4.36-3.1,7.06-3.13,3.33-.04,5.86,1.71,7.07,4.83.66,1.71,1.03,3.48,1.05,5.29.05,4.34.01,8.67.04,13.01,0,.72-.24.99-.98.98-2.31-.03-4.62-.03-6.93,0-.77.01-1.04-.25-1.03-1.02.03-3.56,0-7.11.02-10.67,0-1.03-.02-2.06-.18-3.08-.18-1.13-.55-2.14-1.79-2.49-1.35-.38-2.69.09-3.47,1.21-.67.96-.87,2.05-.86,3.2.01,3.81,0,7.61,0,11.42,0,1.42,0,1.42-1.38,1.42-2.22,0-4.43-.02-6.65.01-.73.01-1-.26-.99-.98.01-7.4.01-14.79,0-22.19,0-.72.27-.98,1-.97,2.34.03,4.68.03,7.02,0,.72,0,1.04.24,1,.97-.03.64,0,1.29,0,2.18Z"/>
    <path class="cls-1" d="m57.78,80.71c0-3.65.02-7.3-.02-10.95,0-.87.29-1.13,1.13-1.11,2.25.05,4.49.04,6.74,0,.73-.01,1.07.19,1.07.99-.02,7.39-.02,14.79,0,22.18,0,.74-.29.97-1,.96-2.31-.03-4.62-.04-6.92,0-.79.01-1.01-.29-1-1.04.03-3.68.01-7.36.01-11.04Z"/>
    <path class="cls-1" d="m57.79,62.18c0-2.52,1.92-4.4,4.46-4.39,2.47.01,4.47,2.04,4.42,4.48-.04,2.35-2.15,4.42-4.47,4.4-2.48-.02-4.42-2-4.41-4.49Z"/>
  </g>
</svg>