<svg xmlns="http://www.w3.org/2000/svg" xmlns:xlink="http://www.w3.org/1999/xlink" id="Layer_2" data-name="Layer 2" viewBox="0 0 335.3 263.5"><defs><linearGradient id="linear-gradient" x1="-398.1" x2="134.3" y1="221.6" y2="221.6" gradientUnits="userSpaceOnUse"><stop offset="0" stop-color="#fff" stop-opacity="0"/><stop offset=".1" stop-color="#fff" stop-opacity="0"/><stop offset=".3" stop-color="#fff" stop-opacity=".1"/><stop offset=".4" stop-color="#fff" stop-opacity=".1"/><stop offset=".5" stop-color="#fff" stop-opacity=".3"/><stop offset=".6" stop-color="#fff" stop-opacity=".4"/><stop offset=".8" stop-color="#fff" stop-opacity=".6"/><stop offset=".9" stop-color="#fff" stop-opacity=".8"/><stop offset="1" stop-color="#fff"/></linearGradient><linearGradient id="linear-gradient-2" x1="108.6" x2="46.7" y1="82.4" y2="60.3" gradientTransform="rotate(67.4 90.5 76)" gradientUnits="userSpaceOnUse"><stop offset="0" stop-color="#02f7bb"/><stop offset="1" stop-color="#02f7bb" stop-opacity="0"/></linearGradient><linearGradient xlink:href="#linear-gradient-2" id="linear-gradient-3" x1="250.9" x2="231.1" y1="42.9" y2="59.4"/><linearGradient id="linear-gradient-4" x1="278.5" x2="268.8" y1="41.5" y2="53.2" gradientUnits="userSpaceOnUse"><stop offset="0" stop-color="#fff"/><stop offset="1" stop-color="#fff" stop-opacity="0"/></linearGradient><linearGradient xlink:href="#linear-gradient-4" id="linear-gradient-5" x1="37.5" x2="61.5" y1="38.6" y2="38.6"/><linearGradient xlink:href="#linear-gradient-4" id="linear-gradient-6" x1="67" x2="79.8" y1="76.6" y2="76.6"/><linearGradient xlink:href="#linear-gradient-4" id="linear-gradient-7" x1="109.3" x2="132.2" y1="108.4" y2="108.4"/><linearGradient xlink:href="#linear-gradient-4" id="linear-gradient-8" x1="322.5" x2="303.1" y1="99.4" y2="95.5"/><linearGradient xlink:href="#linear-gradient-4" id="linear-gradient-9" x1="250.7" x2="297.7" y1="111.6" y2="122.7"/><linearGradient xlink:href="#linear-gradient-4" id="linear-gradient-10" x1="208.6" x2="199.5" y1="112.9" y2="94.8"/><linearGradient xlink:href="#linear-gradient-4" id="linear-gradient-11" x1="217.4" x2="234.5" y1="55.5" y2="55.5"/><linearGradient xlink:href="#linear-gradient-2" id="linear-gradient-12" x1="204.7" x2="26.4" y1="96.3" y2="164.3"/><linearGradient xlink:href="#linear-gradient-2" id="linear-gradient-13" x1="181.4" x2="3.2" y1="35.5" y2="103.5"/><linearGradient xlink:href="#linear-gradient-2" id="linear-gradient-14" x1="174.3" x2="-3.9" y1="16.9" y2="85"/><linearGradient xlink:href="#linear-gradient-2" id="linear-gradient-15" x1="196.4" x2="18.1" y1="74.7" y2="142.7"/><linearGradient xlink:href="#linear-gradient-2" id="linear-gradient-16" x1="185" x2="6.7" y1="44.7" y2="112.8"/><linearGradient xlink:href="#linear-gradient-2" id="linear-gradient-17" x1="203.1" x2="24.8" y1="92.2" y2="160.2"/><linearGradient xlink:href="#linear-gradient-2" id="linear-gradient-18" x1="195.8" x2="17.5" y1="73" y2="141.1"/><linearGradient xlink:href="#linear-gradient-2" id="linear-gradient-19" x1="192.7" x2="14.5" y1="65" y2="133"/><linearGradient xlink:href="#linear-gradient-2" id="linear-gradient-20" x1="206.9" x2="28.6" y1="102.1" y2="170.1"/><style>.cls-12,.cls-9{stroke-width:0}.cls-9{fill:#01474c}.cls-12{fill:#fff}</style></defs><g id="Layer_24" data-name="Layer 24"><rect width="275.5" height="31.6" y="205.8" fill="url(#linear-gradient)" stroke-width="0" rx="5.9" ry="5.9"/><path d="M185.8 252.2h1.8v1.5h-1.8zM196.4 256.3c0 .4-.1.8-.4 1-.2.2-.5.3-1 .3h-1.8c-.4 0-.7 0-1-.3-.2-.2-.4-.5-.4-1V254h-1.4v4.8c0 .5 0 .8-.2 1.2l-.5 1-1 .7c-.4.2-.8.3-1.4.3h-.8c-1 0-1.8-.3-2.2-.9-.5-.6-.7-1.3-.7-2.3v-3H182v3.1c0 1.4.4 2.6 1.1 3.4a4 4 0 0 0 3.1 1.2h1.1c.7 0 1.3-.1 1.8-.4a4 4 0 0 0 1.4-1c.4-.4.7-.9.9-1.4.2-.6.3-1.2.3-1.9v-.3c.2.3.4.4.6.5l.8.2h2c.8 0 1.5-.3 2-.7.4-.5.7-1.2.7-2.1V254h-1.5v2.3ZM193.5 261.2h1.6v1.5h-1.6zM195.9 261.2h1.6v1.5h-1.6zM207.3 257.8l.2-.9-.2-1-.7-1-3.3-3.8-1.1 1 3.2 3.7c.2.3.4.6.4 1l-.3.6c-.2.2-.5.2-.9.2h-4.8l.1 1.6h5c.3 0 .7 0 1-.2.4 0 .7-.3.9-.5l.5-.7ZM210.3 259l-.1 1c-.2.4-.3.7-.6 1l-1 .7c-.4.2-.8.3-1.4.3h-.8v1.5h1.1a4.1 4.1 0 0 0 4-2.7 5 5 0 0 0 .3-1.9V254h-1.4v5ZM219.2 253.7c-.2-.3-.6-.5-1-.6a3.3 3.3 0 0 0-2.4 0l-.9.8c-.3.3-.4.7-.6 1.1l-.2 1.3c0 .5 0 .9.2 1.2 0 .4.2.7.4 1l1 .5 1.5.2h1.5l-.2 1-.6 1-1 .5c-.3.2-.7.3-1.2.3h-1.9l.2 1.5h1.8c.7 0 1.3-.1 1.8-.4a4.3 4.3 0 0 0 2.2-2.5c.2-.5.3-1 .3-1.7v-2.4a5 5 0 0 0-.2-1.7 3 3 0 0 0-.7-1Zm-.5 4h-1.4c-.7 0-1.2-.2-1.4-.4-.3-.2-.4-.6-.4-1.1 0-.6.2-1 .4-1.3.3-.3.7-.5 1.2-.5s.9.2 1.2.5c.3.3.4.9.4 1.6v1.1ZM230.6 248.7h1.8v1.5h-1.8zM233.7 252.6l-1-.6-1.2-.1a3 3 0 0 0-3 2.8v1l.4.7.7.7 1.3.6h-4.1c-.4 0-.7-.1-1-.4-.2-.2-.4-.5-.4-.9v-2.3H224v4.8c0 .4 0 .8-.2 1.2a2.7 2.7 0 0 1-1.5 1.6c-.4.2-.9.3-1.4.3h-.3l.1 1.5h.5a4 4 0 0 0 3.9-2.7c.2-.6.3-1.2.3-1.9v-.3l.6.5.8.1h4.3c1.2 0 2-.2 2.6-.8a3 3 0 0 0 .9-2.2v-.8c0-.7-.1-1.2-.3-1.7a3 3 0 0 0-.6-1Zm-.6 3.4v.7l-.4.6-1.6-.7-.8-.6-.4-.5v-.5a1.5 1.5 0 0 1 .4-1l.4-.4.7-.2c.6 0 1 .2 1.3.6.3.3.4.8.4 1.5v.5ZM266.4 256.3c0 .4-.2.8-.4 1-.2.2-.6.3-1 .3h-2c-.4 0-.7-.1-1-.4l-.2-1v-8h-1.5v8.2c0 .6 0 1 .2 1.4l.5.8.8.5h3.3c.9 0 1.5-.2 2-.6.5-.5.7-1.2.7-2.1V254h-1.4v2.3Z" class="cls-12"/><path d="M263.9 250.3h1.6v1.5h-1.6zM266.3 250.3h1.6v1.5h-1.6zM284 250.3h1.8v1.5H284zM291.5 248.9h1.8v1.5h-1.8z" class="cls-12"/><path d="M307.4 256.3c0 .4-.1.8-.4 1-.2.2-.5.3-1 .3-.3 0-.6 0-.8-.3-.3-.2-.4-.5-.4-1V254h-1.5v2.3c0 .9-.5 1.3-1.5 1.3a2 2 0 0 1-.5 0l-.5-.3a1 1 0 0 1-.3-.4l-.1-.6V254h-1.5v2.3c0 .9-.5 1.3-1.4 1.3h-3.6a3.3 3.3 0 0 0 1.2-3.7 2.8 2.8 0 0 0-2.7-2c-.5 0-1 .2-1.4.3l-1 .7a3 3 0 0 0-.5 3.6c.3.4.7.8 1.2 1.1h-3.5a2 2 0 0 1-.6 0l-.4-.3a1 1 0 0 1-.3-.4l-.2-.6V254h-1.4v2.3c0 .9-.5 1.3-1.4 1.3h-1.5c-.5 0-.8 0-1-.3-.3-.2-.5-.5-.6-1l-1.9-5.3-1.4.6a588.8 588.8 0 0 1 1.7 5.2l-.3.5c-.2.2-.5.3-1 .3h-3.7v1.6h3.9c.4 0 .8 0 1.2-.2a2 2 0 0 0 1-1c.2.5.6.8 1 1l1 .2h1.6c.4 0 .8 0 1.1-.2.4-.2.7-.5 1-1 .2.5.5.8.9 1l1.2.2h4l.7-.1.6-.2 1 .2 1.5.1h2.6c.4 0 .8 0 1.1-.2s.7-.5 1-1c.2.5.6.8 1 1a3.4 3.4 0 0 0 2.4 0 2 2 0 0 0 1-1c.3.5.6.8 1 1l1.1.2c.9 0 1.6-.2 2-.7.5-.5.8-1.2.8-2.1V254h-1.5v2.3Zm-13.7-.3a2.7 2.7 0 0 1-.8 1l-.6.4a4.4 4.4 0 0 1-1.2-.8l-.4-.6-.1-.7c0-.5.1-1 .4-1.2.3-.4.7-.5 1.2-.5s1 .1 1.2.5.5.7.5 1.2c0 .3 0 .5-.2.7ZM311.3 248.1h1.5v11.1h-1.5zM324 248.7l-1.5.3.3 2.3c0 .3-.1.6-.4.8s-.5.3-.8.3c-.5 0-.8-.2-1-.4-.2-.2-.3-.6-.4-1a26.3 26.3 0 0 0-.6-2.4l-1.5.6a85.3 85.3 0 0 1 .8 3.9v6.2h1.5v-6c.3.4.7.6 1.3.6.8 0 1.4-.2 1.8-.7.5-.5.7-1.1.7-2a11.3 11.3 0 0 0-.3-2.5ZM332 251.3c0-.5-.2-1-.4-1.4l-1-1c-.3-.2-.8-.3-1.3-.3s-.9 0-1.3.3l-1 .8-.6 1.1-.2 1.3c0 .4 0 .7.2 1 0 .4.2.7.4 1l.9.5c.4.2.7.2 1.2.2l1-.1.9-.3v4.9h1.4v-6.4l-.1-1.6Zm-2.9 1.9c-.5 0-.8-.1-1-.4-.3-.2-.5-.5-.5-.9a2.2 2.2 0 0 1 .5-1.2c0-.2.2-.3.4-.4.2-.2.4-.2.7-.2.3 0 .5 0 .7.2.2.1.4.3.5.6.2.2.3.5.3.8l.1 1c-.5.3-1 .5-1.7.5ZM11.9 190.8h1.6v1.5h-1.6zM14.4 190.8H16v1.5h-1.6zM14.8 186c0 .3 0 .7-.3.9-.3.2-.6.3-1 .3h-2c-.3 0-.6-.1-.8-.3-.3-.3-.4-.7-.4-1.2v-1l-.1-1a2 2 0 0 0-.5-.8l-.8-.6-1.2-.2H4.4l-1.5.3c-.4.2-.8.4-1 .7a3 3 0 0 0-.7 1l-.2 1.2v7.8h1.4v-7.7c0-.6.2-1 .5-1.3s.9-.5 1.5-.5H5l-.4.7-.1 1v1c0 .8.2 1.4.7 1.8a3 3 0 0 0 2 .7h.6a2.9 2.9 0 0 0 1.3-.6l.5-.5.4.6a1.7 1.7 0 0 0 1 .5h2.6c.8 0 1.5-.2 2-.7.5-.5.7-1.2.7-2.1v-2.4H15v2.3Zm-6 0c0 .4 0 .7-.3 1l-1.1.2c-.4 0-1 0-1.2-.3-.2-.2-.3-.6-.3-1v-.9c0-.3 0-.7.3-.9.2-.3.5-.4 1-.4h.4c.5 0 .8.2 1 .4l.3.9v1ZM28.8 179.9h1.8v1.5h-1.8z" class="cls-12"/><path d="M39.2 183.2c-.2-.3-.5-.5-.9-.7-.4-.2-.8-.2-1.3-.2-1 0-1.6.2-2.2.8-.5.6-.8 1.4-.8 2.4v.6c0 .7-.4 1.1-1.3 1.1H32a2 2 0 0 1-.6 0l-.4-.3a1 1 0 0 1-.3-.4l-.2-.6v-2.3h-1.4v2.3c0 .9-.5 1.3-1.4 1.3h-1.5c-.5 0-.8 0-1-.3-.3-.2-.5-.5-.6-1l-1.9-5.3-1.4.6a588.8 588.8 0 0 1 1.7 5.1l-.3.6c-.2.2-.5.3-1 .3H18v1.6H22c.4 0 .8 0 1.2-.2a2 2 0 0 0 1-1c.2.5.6.8 1 1l1 .2h1.6c.4 0 .8 0 1.1-.2s.7-.5 1-1c.2.5.5.8.9 1l1.2.2h1.3a1.8 1.8 0 0 0 1-.6l.4-.6c.2.4.6.7 1 1l1.4.2c1 0 1.7-.3 2.2-.9.5-.5.8-1.4.8-2.4 0-.5 0-.9-.2-1.3-.1-.4-.3-.7-.6-1Zm-1 3.6c-.3.3-.7.4-1.2.4s-.8-.1-1.1-.4c-.3-.2-.5-.6-.5-1.1 0-.6.2-1 .4-1.4.3-.3.7-.5 1.2-.5.6 0 1 .2 1.2.5.3.4.4.8.4 1.3s-.1 1-.4 1.2ZM48 188.5V186a5 5 0 0 0-.3-1.6 3 3 0 0 0-.6-1c-.3-.4-.6-.6-1-.7a3.3 3.3 0 0 0-2.4 0l-1 .8-.5 1.1-.2 1.3.1 1.2.5 1c.2.2.5.4 1 .5l1.4.2h1.5c0 .4 0 .7-.2 1-.1.4-.3.7-.6 1-.2.2-.5.4-.9.5-.3.2-.8.3-1.3.3h-1.8l.1 1.5h1.9c.6 0 1.2-.1 1.8-.4a4.3 4.3 0 0 0 2.2-2.5c.2-.5.3-1 .3-1.7Zm-1.4-1.3h-1.4c-.7 0-1.2 0-1.5-.3-.2-.2-.3-.6-.3-1.1 0-.6.1-1 .4-1.3.3-.3.6-.5 1.1-.5.5 0 1 .2 1.2.5.3.3.5.9.5 1.6v1.1ZM50.6 188.5l-.1 1.1a2.7 2.7 0 0 1-1.5 1.7c-.4.2-.9.3-1.4.3h-.3v1.5h.5a4 4 0 0 0 3-1.3c.5-.4.8-.9 1-1.4a5 5 0 0 0 .3-1.9v-4.9h-1.5v5ZM50.3 179.9h1.8v1.5h-1.8zM55.7 188.5c0 .4 0 .8-.2 1.1a2.7 2.7 0 0 1-1.5 1.7c-.4.2-.8.3-1.4.3h-.3v1.5h.6a4 4 0 0 0 3-1.3l1-1.4a5 5 0 0 0 .2-1.9v-4.9h-1.4v5ZM58.5 177l-.5.2-.3.4-.3.5-.5 1.2 1 .4.3-.8.3-.5h3.9V177h-3.9ZM59.3 180.3h1.5v8.5h-1.5zM78.9 190.8h1.6v1.5h-1.6zM79.4 186c0 .3-.1.7-.4.9-.2.2-.5.3-1 .3h-1.9l-.9-.3c-.3-.3-.4-.7-.4-1.2v-1l-.1-1a2 2 0 0 0-.5-.8l-.8-.6-1.2-.2H69c-.6 0-1 .1-1.5.3-.5.2-.8.4-1 .7a3 3 0 0 0-.7 1l-.3 1.2v7.8H67v-7.7c0-.6.2-1 .5-1.3.3-.3.8-.5 1.5-.5h.6l-.5.7v2c0 .8.2 1.4.7 1.8a3 3 0 0 0 2 .7h.6a2.9 2.9 0 0 0 1.2-.6l.6-.5c0 .2.2.4.4.6a1.7 1.7 0 0 0 1 .5H78c.9 0 1.6-.2 2-.7.5-.5.8-1.2.8-2.1v-2.4h-1.5v2.3Zm-6 0c0 .4-.1.7-.4 1l-1 .2c-.5 0-1 0-1.2-.3-.2-.2-.4-.6-.4-1v-.9c0-.3.1-.7.3-.9.2-.3.5-.4 1-.4h.5c.4 0 .7.2 1 .4l.2.9v1ZM76.5 190.8h1.6v1.5h-1.6zM89.7 179.9h1.6v1.5h-1.6zM87.3 179.9h1.6v1.5h-1.6zM94.3 179.9h1.8v1.5h-1.8z" class="cls-12"/><path d="M95.1 186c0 .3 0 .7-.3.9-.3.2-.6.3-1 .3h-2.2a2 2 0 0 1-.5 0l-.5-.3a1 1 0 0 1-.3-.4v-2.9h-1.5v2.3c0 .9-.5 1.3-1.4 1.3h-1.7c-.4 0-.7-.1-1-.4l-.2-1v-8H83v8.2c0 .6 0 1 .2 1.3a1.8 1.8 0 0 0 1.3 1.3l1 .2h1.9c.4 0 .8-.1 1.1-.3.4-.1.7-.4 1-.9.2.5.5.8.9 1s.8.2 1.2.2h2.3c.8 0 1.5-.3 2-.7.5-.5.7-1.2.7-2.1v-2.4h-1.4v2.3ZM98.8 177.7h1.5v11.1h-1.5zM108.8 184.4l-3.2-3.7-1.1 1 3.1 3.7c.3.3.4.6.4.9 0 .3 0 .5-.3.7l-.8.2H102l.1 1.6h4.9c.4 0 .8 0 1.1-.2.4-.1.6-.3.9-.5a2.1 2.1 0 0 0 .7-1.6l-.3-1c-.1-.3-.3-.7-.6-1ZM117.8 181.8h1.8v1.5h-1.8zM122.4 188.4c0 .5 0 .8-.2 1.2-.1.4-.3.7-.6 1-.2.3-.5.5-1 .7-.3.2-.8.3-1.3.3h-.8c-1 0-1.8-.3-2.2-.9-.5-.6-.7-1.3-.7-2.3v-3H114v3.1c0 1.4.4 2.6 1.1 3.4a4 4 0 0 0 3.1 1.2h1.1c.7 0 1.3-.1 1.8-.4a4 4 0 0 0 1.4-1c.4-.4.7-.9 1-1.5l.2-1.8v-4.8h-1.4v4.8ZM131 183.3c-.3-.3-.7-.5-1-.6a3.3 3.3 0 0 0-2.5 0l-.9.8-.6 1.1-.2 1.3c0 .5 0 .9.2 1.2 0 .4.2.7.4 1l1 .5 1.5.2h1.5l-.2 1-.6 1-1 .5c-.3.2-.7.3-1.2.3h-1.9l.2 1.5h1.8c.7 0 1.3-.1 1.8-.4a4.3 4.3 0 0 0 2.2-2.5c.2-.5.3-1 .3-1.7V186a5 5 0 0 0-.2-1.6 3 3 0 0 0-.7-1Zm-.6 4H129c-.7 0-1.2-.2-1.4-.4-.3-.2-.4-.6-.4-1.1 0-.6.1-1 .4-1.3.3-.3.7-.5 1.2-.5s.9.2 1.2.5c.3.3.4.9.4 1.6v1.1ZM144.9 186c0 .3-.1.7-.4.9-.2.2-.6.3-1 .3h-1.8c-.5 0-.8 0-1-.3-.3-.2-.5-.5-.6-1l-1.9-5.3-1.4.6a588.8 588.8 0 0 1 1.7 5.1c0 .2 0 .4-.3.6-.2.2-.5.3-1 .3h-3.7v1.6h3.9c.4 0 .8 0 1.2-.2a2 2 0 0 0 1-1c.3.5.6.8 1 1l1 .2h2c.9 0 1.6-.2 2-.7.5-.5.8-1.2.8-2.1v-2.4h-1.5v2.3ZM142.6 190.8h1.8v1.5h-1.8zM156 183.3c-.2-.3-.5-.5-.9-.6a3.3 3.3 0 0 0-2.4 0l-1 .8-.5 1.1-.2 1.3.1 1.2.5 1c.2.2.5.4 1 .5l1.4.2h1.5c0 .4 0 .7-.2 1-.1.4-.3.7-.6 1-.2.2-.5.4-.9.5-.3.2-.8.3-1.3.3h-1.8l.1 1.5h1.9c.6 0 1.2-.1 1.8-.4a4.3 4.3 0 0 0 2.2-2.5c.2-.5.3-1 .3-1.7V186a5 5 0 0 0-.3-1.6 3 3 0 0 0-.6-1Zm-.4 4h-1.4c-.7 0-1.2-.2-1.5-.4-.2-.2-.3-.6-.3-1.1 0-.6.1-1 .4-1.3.2-.3.6-.5 1.1-.5.5 0 1 .2 1.2.5.3.3.5.9.5 1.6v1.1ZM165.4 180.6h1.6v1.5h-1.6zM167.8 180.6h1.6v1.5h-1.6zM178.6 178.3h1.8v1.5h-1.8zM182.6 185.8v-.9c0-.6 0-1.2-.2-1.6a3 3 0 0 0-.7-1c-.2-.4-.5-.6-1-.7l-1.2-.2a3 3 0 0 0-3 3l.1.9.3.7.7.7 1.4.6H174.7a2 2 0 0 1-.5-.1l-.5-.2a1 1 0 0 1-.3-.4l-.1-.6v-2.3h-1.5v2.2c0 1-.4 1.3-1.3 1.3h-5.9c-.6 0-1 0-1.3-.4-.2-.2-.3-.6-.3-1v-2.2h-1.5v2.5c0 .4 0 .7.2 1 0 .4.3.7.5.9.2.3.5.5.8.6.4.2.8.2 1.3.2h6.2c.4 0 .8 0 1.1-.2a2 2 0 0 0 1-1c.2.5.5.8.9 1l1.2.2h4.5c1.2 0 2-.2 2.6-.8a3 3 0 0 0 .8-2.2Zm-1.4-.2c0 .3 0 .5-.2.8 0 .2-.2.3-.3.5l-1.6-.7-.8-.5-.4-.6v-.5a1.5 1.5 0 0 1 .4-1c.1-.2.3-.4.5-.4l.6-.2c.7 0 1.1.2 1.4.6.2.4.3.9.3 1.5v.5ZM194.8 177.7h1.6v1.5h-1.6zM195.9 179.9h1.6v1.5h-1.6zM193.6 179.9h1.6v1.5h-1.6zM203.1 190.8h1.6v1.5h-1.6zM205.5 190.8h1.6v1.5h-1.6zM208.3 190.8h1.6v1.5h-1.6zM211.2 186c0 .3-.2.7-.4.9-.2.2-.6.3-1 .3h-2.1a2 2 0 0 1-.6 0l-.4-.3a1 1 0 0 1-.3-.4l-.1-.6v-2.3h-1.5v2.3c0 .9-.5 1.3-1.4 1.3h-2.2l-.4-.3a1 1 0 0 1-.3-.4l-.2-.6v-2.3H199v2.3c0 .4-.1.8-.4 1-.2.2-.5.3-1 .3-.3 0-.6 0-.8-.3-.3-.2-.4-.5-.4-1v-2.3h-1.5v2.3c0 .9-.5 1.3-1.5 1.3a2 2 0 0 1-.5 0l-.5-.3a1 1 0 0 1-.3-.4l-.1-.6v-2.3h-1.5v2.3c0 .9-.5 1.3-1.4 1.3h-1c-.3 0-.7-.1-1-.3-.2-.2-.3-.6-.3-1v-2.3h-1.5v4.9l-.1 1.1-.6 1-1 .7-1.4.2h-.9l.1 1.6h1.1a4 4 0 0 0 4-2.8l.2-1.8v-.4c.2.3.4.4.7.5l.8.2h.8c.5 0 .9-.1 1.2-.3s.7-.4 1-.9c.2.5.6.8 1 1a3.4 3.4 0 0 0 2.4 0 2 2 0 0 0 1-1c.3.5.6.8 1 1l1 .2c.4 0 .8-.1 1.1-.3.4-.1.7-.4 1-.9.2.5.5.8 1 1l1.1.2h1.7c.4 0 .8-.1 1.1-.3.4-.1.7-.4 1-.9.2.5.5.8 1 1l1.1.2h2.3c.9 0 1.5-.3 2-.7.5-.5.7-1.2.7-2.1v-2.4h-1.4v2.3ZM210.7 190.8h1.6v1.5h-1.6zM209.5 193.1h1.6v1.5h-1.6zM219.2 188.5c0 .4 0 .8-.2 1.1a2.7 2.7 0 0 1-1.5 1.7c-.4.2-.8.3-1.4.3h-.3l.1 1.5h.5a4 4 0 0 0 3-1.3l1-1.4a5 5 0 0 0 .2-1.9v-4.9h-1.4v5ZM218.8 179.9h1.8v1.5h-1.8zM222.8 177.7h1.5v11.1h-1.5zM236.8 190.8h1.6v1.5h-1.6zM235.6 193.1h1.6v1.5h-1.6zM234.4 190.8h1.6v1.5h-1.6zM237.3 186c0 .3-.2.7-.4.9-.2.2-.6.3-1 .3h-1.8c-.4 0-.8 0-1-.3-.3-.2-.4-.5-.4-1v-2.3h-1.5v4.9l-.1 1.1-.6 1-1 .7c-.4.2-.9.2-1.4.2h-.9l.1 1.6h1.1a4 4 0 0 0 4-2.8l.2-1.8v-.4c.2.3.4.5.7.6h2.8c.8 0 1.4-.1 2-.6.4-.5.6-1.2.6-2.1v-2.4h-1.4v2.3ZM256.5 186c0 .3 0 .7-.3.9-.3.2-.6.3-1 .3h-6.8v1.6h2.7c.4 0 .6 0 .8.3l.2.7c0 .2 0 .4-.2.6 0 .3-.3.5-.5.6-.2.2-.5.3-1 .4l-1.4.2h-1.4c-1 0-1.8-.3-2.3-.9-.4-.6-.7-1.3-.7-2.3v-3h-1.4v3.1c0 1.4.4 2.6 1 3.4a4 4 0 0 0 3.2 1.2h1.8c.8 0 1.5-.1 2-.3a4 4 0 0 0 1.3-.8 2.8 2.8 0 0 0 1-2l-.1-.7a1 1 0 0 0-.4-.5h2.3c.8 0 1.5-.2 2-.7.4-.5.7-1.2.7-2v-8.3h-1.5v8.1ZM274 186c0 .3 0 .7-.3.9-.3.2-.6.3-1 .3-.3 0-.6 0-.9-.3-.3-.2-.4-.5-.4-1v-2.3H270v2.3c0 .9-.5 1.3-1.6 1.3a2 2 0 0 1-.5 0l-.4-.3a1 1 0 0 1-.4-.4v-2.9h-1.5v2.3c0 .9-.5 1.3-1.5 1.3h-1c-.5 0-.8-.1-1-.4-.2-.3-.3-.6-.3-1v-8h-1.4v8.2c0 .6 0 1 .2 1.3a1.8 1.8 0 0 0 1.3 1.3l1 .2h1.2l1.2-.3c.4-.2.7-.4 1-.9.2.5.5.8.9 1a3.4 3.4 0 0 0 2.5 0 2 2 0 0 0 1-1c.2.5.5.8.9 1l1.2.2c.8 0 1.5-.3 2-.8.5-.4.7-1.1.7-2v-2.4h-1.4v2.3ZM298.9 177.7h1.6v1.5h-1.6zM300.1 179.9h1.6v1.5h-1.6zM297.7 179.9h1.6v1.5h-1.6zM303 186c0 .3 0 .7-.3.9-.3.2-.6.3-1 .3-.3 0-.6 0-.9-.3-.3-.2-.4-.5-.4-1v-2.3H299v2.3c0 .9-.5 1.3-1.6 1.3a2 2 0 0 1-.5 0l-.4-.3a1 1 0 0 1-.4-.4v-2.9h-1.5v2.3c0 .9-.5 1.3-1.5 1.3h-1c-.3 0-.6 0-.9-.3-.2-.2-.3-.5-.3-1v-.5l-.2-1.2c-.1-.4-.3-.8-.6-1-.2-.3-.5-.6-1-.7-.3-.2-.7-.3-1.2-.3-1 0-1.7.3-2.2 1-.5.5-.8 1.3-.8 2.3v.6c0 .7-.4 1.1-1.3 1.1h-.6c-.5 0-.8-.1-1-.4-.2-.3-.3-.6-.3-1v-8h-1.4v8.2c0 .6 0 1 .2 1.3a1.8 1.8 0 0 0 1.3 1.3l1 .2h1.3a1.8 1.8 0 0 0 1-.6l.4-.6c.3.4.6.7 1 .9a3.3 3.3 0 0 0 2.6 0c.4-.1.8-.5 1.1-1l.4.7a1.8 1.8 0 0 0 1 .5h1.6c.3 0 .7 0 1-.2s.8-.4 1-.9c.3.5.6.8 1 1a3.4 3.4 0 0 0 2.5 0 2 2 0 0 0 1-1c.2.5.5.8 1 1l1.1.2c.8 0 1.5-.3 2-.8.5-.4.7-1.1.7-2v-2.4h-1.4v2.3Zm-14 .8c-.2.3-.6.4-1.1.4-.5 0-.9-.1-1.2-.4-.2-.2-.4-.6-.4-1.1 0-.6.1-1 .4-1.4.2-.3.6-.5 1.2-.5s1 .2 1.2.5c.2.4.3.8.3 1.3s0 1-.3 1.2ZM318.8 187.4l-.7-.4-1.1-.2h-2v-1.7c0-.5.2-.9.5-1.1.3-.3.7-.4 1-.4h2.3l-.1-1.6h-2c-.5 0-1 .1-1.3.3a2.7 2.7 0 0 0-1.6 1.6l-.2 1.2v3.2h3c.5 0 .8.1 1 .3l.2.7c0 .4 0 .7-.2 1l-.7.6-1 .5a5 5 0 0 1-1.4.1h-1.1c-1.1 0-1.9-.2-2.3-.8-.5-.6-.7-1.3-.7-2.3v-3h-1.5v3.1c0 1.4.4 2.5 1.2 3.4a4 4 0 0 0 3 1.2h1.6a5 5 0 0 0 3.2-1.2c.4-.3.7-.8 1-1.2a3.6 3.6 0 0 0 .2-2.6l-.3-.7ZM321.3 177.7h1.5v11.1h-1.5zM331.7 183.6v2.3c0 .4 0 .8-.3 1-.3.2-.6.3-1 .3h-1.9c-.4 0-.7 0-1-.3-.2-.2-.3-.5-.3-1v-2.3h-1.5v4.9c0 .4 0 .8-.2 1.1l-.5 1-1 .7c-.4.2-1 .2-1.5.2h-.8v1.6h1.2a4 4 0 0 0 3.9-2.8c.2-.5.3-1.1.3-1.8v-.4c.2.3.4.5.7.6h2.7c.8 0 1.5-.1 2-.6s.7-1.2.7-2.1v-2.4h-1.5ZM329.4 190.8h1.8v1.5h-1.8zM6.3 250.3a2.7 2.7 0 0 0-2.4 1.5v-1.3H2.1v9H4v-5.7c0-.6.2-1 .5-1.3.3-.3.7-.5 1.3-.5s1.1.2 1.4.5c.4.4.5.9.5 1.5v5.5h1.8V254c0-1.1-.3-2-.8-2.7-.5-.6-1.3-1-2.3-1ZM15.6 250.3c-1.2 0-2.1.4-2.8 1a4 4 0 0 0-1 3v1.4c0 1.3.4 2.2 1 2.9.7.7 1.6 1 2.8 1s2-.3 2.7-1c.7-.7 1-1.6 1-2.9v-1.5c0-1.2-.3-2.2-1-2.8-.6-.7-1.6-1-2.7-1Zm2 5.4c0 .7-.3 1.3-.6 1.7s-.8.6-1.4.6-1.1-.2-1.5-.6-.5-1-.5-1.7v-1.5c0-.7.2-1.2.5-1.6.4-.4.8-.6 1.5-.6s1 .2 1.4.6c.3.4.5 1 .5 1.6v1.5ZM26 250.3c-.6 0-1 .2-1.5.5a3 3 0 0 0-1 1v-1.3h-1.7v9h1.8v-5.7c0-.6.1-1 .5-1.3.3-.3.7-.5 1.3-.5.3 0 .6 0 .8.2.2 0 .4.2.6.4l1.1-1.5c-.2-.3-.5-.5-.8-.6l-1.2-.2ZM32.7 250.3c-1.2 0-2 .4-2.7 1a4 4 0 0 0-1 3v1.4a4 4 0 0 0 1 2.9c.6.7 1.5 1 2.7 1s2.1-.3 2.8-1c.6-.7 1-1.6 1-2.9v-1.5c0-1.2-.4-2.2-1-2.8-.7-.7-1.6-1-2.8-1Zm2 5.4c0 .7-.2 1.3-.5 1.7-.4.4-.9.6-1.5.6s-1-.2-1.4-.6c-.4-.4-.5-1-.5-1.7v-1.5c0-.7.1-1.2.5-1.6.3-.4.8-.6 1.4-.6s1.1.2 1.5.6c.3.4.5 1 .5 1.6v1.5ZM42.4 250.3c-1.1 0-2 .4-2.7 1a4 4 0 0 0-1 3v1.4c0 1.3.3 2.2 1 2.9.6.7 1.5 1 2.7 1s2.1-.3 2.8-1c.6-.7 1-1.6 1-2.9v-1.5c0-1.2-.4-2.2-1-2.8-.7-.7-1.6-1-2.8-1Zm2 5.4c0 .7-.2 1.3-.5 1.7s-.8.6-1.5.6-1-.2-1.4-.6c-.3-.4-.5-1-.5-1.7v-1.5c0-.7.2-1.2.5-1.6.3-.4.8-.6 1.4-.6s1.1.2 1.5.6c.3.4.5 1 .5 1.6v1.5ZM54.9 252v-1.5h-6.4v1.6h4.4l-4.5 5.9v1.5h6.7v-1.6h-4.5l4.3-5.9zM56.9 248.1v1.8l1.8-1.1v10.7h1.8v-12.7h-1.8l-1.8 1.3zM70.4 252.1h-1.8v3.8h-3.5l4.1-9h-1.8l-4.2 9.1v1.6h5.4v1.9h1.8v-1.9h.9v-1.7h-.9v-3.8zM77 246.7c-1.1 0-2 .3-2.6 1-.6.6-1 1.5-1 2.6v5.7c0 1.1.4 2 1 2.7.6.6 1.5 1 2.7 1s2-.4 2.7-1c.6-.7.9-1.5.9-2.7v-5.7c0-1.1-.3-2-1-2.6-.5-.7-1.4-1-2.6-1Zm2 9.4c0 .5-.2 1-.5 1.3-.3.4-.8.6-1.4.6s-1.1-.2-1.4-.6a2 2 0 0 1-.4-1.3v-5.8c0-.6 0-1 .4-1.4.3-.3.7-.5 1.4-.5s1.1.2 1.4.5c.3.3.4.8.4 1.4v5.8ZM88 252.9c.6-.2 1-.6 1.4-1 .3-.5.5-1 .5-1.7v-.2c0-1-.3-1.8-.9-2.4-.6-.6-1.4-.9-2.5-.9-1 0-1.8.3-2.4.9-.6.5-1 1.4-1.2 2.4h1.8c.1-.6.3-1 .6-1.2.4-.3.7-.4 1.2-.4s1 .2 1.2.4c.3.3.4.7.4 1.2v.4c0 .5-.1 1-.4 1.2-.2.3-.6.5-1.1.5h-1v1.7h1c.5 0 1 .1 1.3.5s.4.8.4 1.4v.4c0 .6-.1 1-.4 1.3a2 2 0 0 1-1.4.5c-.6 0-1-.1-1.4-.4-.3-.2-.5-.6-.6-1.2h-1.8c0 .7.3 1.3.6 1.8s.8.9 1.3 1.1c.6.3 1.2.4 1.9.4 1.2 0 2-.3 2.7-.9.6-.6 1-1.5 1-2.6v-.2c0-.8-.3-1.5-.6-2-.4-.5-1-.9-1.6-1ZM101.3 253c-.7 0-1 .4-1 1.1s.3 1.1 1 1.1 1-.4 1-1-.4-1.2-1-1.2ZM101.3 257.3c-.7 0-1 .4-1 1.1s.3 1.1 1 1.1 1-.3 1-1-.4-1.2-1-1.2ZM122 256a8.9 8.9 0 0 0-1.1-1.5l-3-3 4.9-1.9-.3-1.4-6 2.2v1.7l3.7 3.6.5.7v.6c0 .3 0 .5-.2.7-.1.2-.4.2-.9.2h-4.8c-.4 0-.7 0-1-.3s-.4-.5-.6-1l-1.8-5.3-1.4.6a588.8 588.8 0 0 1 1.7 5.2l-.3.6c-.2.2-.5.3-1 .3h-3.8l.1 1.5h3.8c.5 0 .9 0 1.3-.2a2 2 0 0 0 1-1c.2.6.5.9.9 1l1.1.2h5l1-.1.8-.4.6-.7.2-1-.1-.7a3 3 0 0 0-.2-.7Z" class="cls-12"/><path fill="none" stroke="#fff" stroke-miterlimit="10" d="M157.7 251.8v10.4"/><path d="m245.8 250 .1 1.2v.6l.5.4.6.1.9-.3c.2-.2.3-.5.3-.8v-1l-.3-1.3 1.4-.3a12 12 0 0 1 .3 2.6c0 .4 0 .8-.2 1 0 .4-.3.7-.5 1l-.8.5-1 .2a2.5 2.5 0 0 1-1.9-.9l-.7.7-1.1.2c-.6 0-1-.2-1.4-.6a18 18 0 0 1 0 1.7v4.3h-1.4v-4.4a25.2 25.2 0 0 0-.5-4.6 85 85 0 0 0-.3-1.2l1.4-.5a26.4 26.4 0 0 1 .6 2.4l.5 1c.2.2.5.3 1 .3.3 0 .6 0 .8-.3.3-.2.4-.5.4-.8 0-.5 0-1.3-.3-2.3l1.4-.3.3 1.3ZM252.1 259.3v-4.4a25.2 25.2 0 0 0-.5-4.6 85 85 0 0 0-.3-1.2l1.4-.5a18.6 18.6 0 0 1 .9 6.2v4.5h-1.5Z" class="cls-12"/><path d="M6.5 222.2h2.6v4.2c0 .5.2 1 .6 1.4.3.3.8.5 1.3.5h4.2c.2 0 .4 0 .6-.2.2-.2.2-.4.2-.7s0-.4-.2-.6a.9.9 0 0 0-.6-.2h-3.4v-2.2H15c1 0 1.9.3 2.6.8.7.6 1 1.3 1 2.3a3.5 3.5 0 0 1-1.8 3c-.5.4-1.1.5-1.8.5h-4a4.4 4.4 0 0 1-4-2.2c-.4-.7-.6-1.4-.6-2.3v-4.3Zm5 4.4v-2.7h7.9l.1.2v2.3l-.1.2h-8Z" class="cls-9"/><path d="M19.2 226.4v-2.3c0-.2 0-.2.2-.2h1c.2 0 .4 0 .5-.3l.3-.6v-3.6h2.5v3.8a3.4 3.4 0 0 1-1.7 3c-.5.2-1 .4-1.7.4h-1l-.1-.2Zm2-10.8h2.3v2.3h-2.3v-2.3ZM26.6 226.1a3.3 3.3 0 0 1-1.7-2.9v-8.6h2.6v8.5c0 .2 0 .4.2.6l.6.2h1l.1.2v2.3l-.1.2h-1c-.7 0-1.2-.2-1.7-.5Z" class="cls-9"/><path d="M29 226.4v-2.3c0-.2.1-.2.3-.2h1c.1 0 .3 0 .5-.3l.2-.6v-3.6h2.6v3.8a3.4 3.4 0 0 1-1.7 3c-.5.2-1 .4-1.7.4h-1l-.1-.2Zm.2 1.7h2.3v2.3h-2.3V228ZM34.2 228.3c.4-.3.6-.6.7-1 .2-.3.2-.8.2-1.5V220h2.6v6c0 1-.1 1.8-.4 2.4-.2.6-.7 1.2-1.3 1.7-.6.5-1.4 1-2.6 1.6l-1-2.1 1.8-1.2Zm1-12.2h2.3v2.3h-2.2v-2.3Zm1.3 9.6c-.4-.7-.6-1.5-.6-2.5V220h1.8v3.1c0 .3 0 .5.2.7l.6.2h.7c.2 0 .2 0 .2.2v2.3c0 .1 0 .2-.2.2h-.7c-1 0-1.6-.3-2-1Z" class="cls-9"/><path d="M39.2 223.9h1.2c.2 0 .4 0 .6-.3l.2-.6v-3h2.6v3c0 .3 0 .5.2.6l.6.3h1.2l.1.2v2.3l-.1.2h-1.2c-.9 0-1.6-.3-2.1-.9-.5.6-1.2.9-2.1.9h-1.2l-.1-.2v-2.3l.1-.2Zm.5 4.2H42v2.3h-2.3V228Zm3.2 0h2.3v2.3H43V228Z" class="cls-9"/><path d="M45.6 226.4v-2.3l.1-.2H47c.3 0 .4 0 .6-.3.2-.1.2-.3.2-.6v-1h2v1.2c0 1-.2 1.8-.7 2.4-.5.7-1.2 1-2 1h-1.2c-.2 0-.2 0-.2-.2Zm4-.3a3.8 3.8 0 0 1-1.9-3.4v-1.1h-1V219h4.7a4 4 0 0 1 2 .5c.6.3 1 .8 1.4 1.3s.5 1.2.5 2-.1 1.3-.5 1.9a3.9 3.9 0 0 1-5.3 1.4Zm2.7-2.5c.2-.2.3-.5.3-.9s0-.6-.3-.8c-.2-.2-.5-.3-.9-.3h-1.1v1.1c0 .4 0 .6.3.9.2.2.5.3.8.3s.7 0 .9-.3ZM61.8 230a4.5 4.5 0 0 1-2.3-4v-4.2h2.6v4.1c0 .6.2 1 .6 1.4.3.4.8.6 1.3.6h4.1c.3 0 .5-.1.7-.3.2-.2.3-.4.3-.7l-.2-.6a.9.9 0 0 0-.6-.3l-4.6-1v-2.4c0-.7.2-1.3.6-1.9a3.9 3.9 0 0 1 3.3-2H71v2.6h-3.3c-.4 0-.7.2-1 .4-.2.3-.3.6-.3 1v.2l1.4.3.7.2.7.1c.8.3 1.4.7 1.9 1.3a3.6 3.6 0 0 1 .2 4 3.6 3.6 0 0 1-3.1 1.8h-4c-.9 0-1.7-.2-2.3-.6ZM74.8 226.1a3.3 3.3 0 0 1-1.6-2.9v-8.6h2.5v8.5c0 .2 0 .4.2.6l.6.2h1c.1 0 .2 0 .2.2v2.3c0 .1 0 .2-.2.2h-1c-.6 0-1.2-.2-1.7-.5Z" class="cls-9"/><path d="M83 223.9c.2 0 .5-.1.7-.4a1.1 1.1 0 0 0 0-1.6c-.2-.2-.4-.3-.8-.3s-.6 0-.8.3c-.2.2-.3.5-.3.8 0 .4 0 .7.3.9.2.2.5.3.8.3h4c.4 0 .7-.1 1-.4.2-.2.3-.4.3-.8s-.2-.6-.4-.8c-.2-.2-.5-.3-.8-.3h-8.7V219H87a4 4 0 0 1 2 .5c.5.3 1 .8 1.3 1.3.4.6.6 1.2.6 2s-.2 1.2-.6 1.8a4 4 0 0 1-3.3 2h-4.2c-.8 0-1.4-.2-2-.6s-1-.9-1.2-1.5c-.3-.6-.5-1.2-.5-1.8 0-.5.2-1 .5-1.6.3-.6.8-1 1.4-1.4.5-.3 1.2-.5 2-.5s1.5.2 2 .7a4.3 4.3 0 0 1 1.3 2.8 4 4 0 0 1-.6 2.1c-.3.6-.7 1-1.3 1.3-.5.3-1 .4-1.6.4h-5.3V224h5.4ZM98 229a5.8 5.8 0 0 1-3-5v-3.3h2.6v3.1c0 .6.2 1.1.4 1.6a3.1 3.1 0 0 0 2.8 1.6 3.1 3.1 0 0 0 2.8-1.6c.2-.5.4-1 .4-1.6V220h2.5v4a5.7 5.7 0 0 1-8.6 5Zm7.5-3.3a5 5 0 0 1-.5-2.4v-3.4h1.5v3.2l.3.6c.1.2.3.2.6.2.2 0 .4 0 .6-.2l.2-.6v-3.2h2v3.3c0 1-.2 1.8-.7 2.5-.5.6-1.2 1-2.1 1s-1.5-.4-1.9-1Zm4 0c-.5-.7-.8-1.5-.8-2.4v-3.4h2v3.2l.3.6c.1.2.3.2.6.2s.4 0 .6-.2l.2-.6v-3.7h2v3.8c0 1-.2 1.8-.7 2.5-.5.6-1.2 1-2.1 1s-1.7-.4-2.2-1Zm4.1 0c-.5-.7-.7-1.5-.7-2.5v-3.8h2v3.7l.3.6.5.2h.8c.1 0 .2 0 .2.2v2.3c0 .1 0 .2-.2.2h-.8c-.9 0-1.6-.3-2-1Z" class="cls-9"/><path d="M116.3 226.4v-2.3c0-.2 0-.2.2-.2h2c.2 0 .4 0 .5-.3l.3-.6v-3.6h2.5v3.8a3.4 3.4 0 0 1-1.7 3c-.5.2-1 .4-1.6.4h-2c-.1 0-.2 0-.2-.2Zm.2 1.7h2.3v2.3h-2.3V228Zm3.2 0h2.3v2.3h-2.3V228ZM126.8 228.3l1-.8c.2-.3.3-.6.3-1H127c-.7 0-1.4 0-2-.4s-1-.8-1.4-1.3-.5-1.2-.5-2 .1-1.3.5-1.9c.3-.6.8-1 1.4-1.4s1.3-.5 2-.5 1.3.2 1.8.5c.6.4 1 .8 1.4 1.4.3.6.5 1.3.5 2v2.6c0 1-.2 2-.6 2.7s-.8 1.2-1.6 1.8c-.7.5-1.8 1-3.3 1.7l-.8-2.3 2.4-1.1Zm1.3-4.3V223c0-.4 0-.7-.3-.9s-.5-.3-.8-.3-.7 0-.9.3c-.2.2-.3.5-.3.9s0 .6.3.8c.2.2.5.4.9.4h1.1ZM132.2 228.5l.5-1.1.1-1.6V220h2.6v6c0 1-.1 1.7-.3 2.3-.2.6-.5 1.2-1 1.7l-1.9 1.7-1.4-1.9 1.3-1.2Zm2-2.8c-.4-.7-.6-1.5-.6-2.5V220h1.8v3.1c0 .3 0 .5.2.7l.6.2h.8l.1.2v2.3l-.1.2h-.8c-.9 0-1.5-.3-2-1Z" class="cls-9"/><path d="M136.8 226.4v-2.3c0-.2 0-.2.2-.2h.7c.3 0 .5 0 .6-.3.2-.1.2-.3.2-.6v-3h2v3.2c0 1-.2 1.8-.7 2.4-.5.6-1.2 1-2.1 1h-.7c-.2 0-.2 0-.2-.2Zm3-.7c-.5-.7-.8-1.5-.8-2.4v-3.4h2v3.2l.3.6c.1.2.3.2.6.2s.4 0 .6-.2l.2-.6v-3.2h2v3.3c0 1-.2 1.8-.7 2.5-.5.6-1.2 1-2.1 1s-1.6-.4-2.1-1Zm4.2 0c-.5-.7-.8-1.5-.8-2.5V220h2v3c0 .3.1.5.3.7l.6.2h.6v-4.5h2.6v7.2H146c-1 0-1.6-.3-2.1-1ZM155.4 225.5a3.9 3.9 0 0 1-2-3.3c0-.7.2-1.4.5-2 .4-.5.9-1 1.5-1.3a4 4 0 0 1 2-.4h1.1v-1.2h2.5v4.9a4 4 0 0 1-.5 2c-.3.5-.7 1-1.3 1.3-.5.4-1.2.5-1.9.5s-1.3-.1-2-.5Zm2.8-2.5c.2-.2.3-.5.3-.9v-1h-1.2c-.3 0-.6 0-.8.2-.3.2-.4.5-.4.8s.1.7.4 1c.2.1.5.3.8.3s.6-.2.9-.4Zm2 3.1c-.4-.3-.8-.7-1-1.2s-.4-1-.4-1.7V220h2.2v3.1c0 .3.1.5.3.7l.5.2h.8c.1 0 .2 0 .2.2v2.3c0 .1 0 .2-.2.2h-.8a3 3 0 0 1-1.6-.5Z" class="cls-9"/><path d="M162.6 223.9h1.2c.2 0 .4 0 .5-.3.2-.1.3-.3.3-.6v-3h2.5v3c0 .3.1.5.3.6.1.2.3.3.5.3h1.2c.1 0 .2 0 .2.2v2.3c0 .1 0 .2-.2.2H168c-.8 0-1.5-.3-2-.9-.6.6-1.3.9-2.2.9h-1.1c-.1 0-.2 0-.2-.2v-2.3c0-.2 0-.2.2-.2Zm.5 4.2h2.3v2.3H163V228Zm3.2 0h2.3v2.3h-2.3V228Z" class="cls-9"/><path d="M169 226.4v-2.3l.1-.2h.8c.2 0 .4 0 .5-.3.2-.1.3-.3.3-.6v-8.4h2.5v8.4c0 .3.1.5.3.6.1.2.3.3.5.3h.8c.1 0 .2 0 .2.2v2.3c0 .1 0 .2-.2.2h-.8l-1.2-.3-.9-.7-.8.7c-.4.2-.8.3-1.3.3h-.7c-.1 0-.2 0-.2-.2Z" class="cls-9"/><path d="M174.8 223.9h4c.3 0 .6-.1.8-.3.3-.2.4-.5.4-.9s-.2-.7-.6-1l-4-2.6v-2l3.5-3.7 1.7 1.6-2.6 2.8 3 1.9c.4.3.8.8 1.1 1.3.3.5.4 1.1.4 1.8s-.1 1.3-.5 1.9a4 4 0 0 1-1.3 1.4c-.6.3-1.2.5-2 .5h-3.9c-.1 0-.2 0-.2-.2v-2.3l.2-.2ZM189 230a4.5 4.5 0 0 1-2.3-4v-4.2h2.6v4.1c0 .6.2 1 .6 1.4.3.4.8.6 1.3.6h4c.4 0 .6-.1.8-.3.2-.2.3-.4.3-.7l-.2-.6a.9.9 0 0 0-.6-.3l-4.6-1v-2.4c0-.7.2-1.3.6-1.9a3.9 3.9 0 0 1 3.3-2h3.3v2.6h-3.3c-.4 0-.7.2-1 .4-.2.3-.3.6-.3 1v.2l1.4.3.7.2.7.1c.8.3 1.4.7 1.9 1.3a3.6 3.6 0 0 1 .2 4 3.6 3.6 0 0 1-3.1 1.8h-4c-1 0-1.7-.2-2.3-.6ZM204 228.3l1-.8c.3-.3.3-.6.3-1h-1.1c-.7 0-1.4 0-2-.4s-1-.8-1.4-1.3-.5-1.2-.5-2 .2-1.3.5-1.9c.4-.6.8-1 1.4-1.4s1.3-.5 2-.5 1.3.2 1.9.5c.5.4 1 .8 1.3 1.4.3.6.5 1.3.5 2v2.6c0 1-.2 2-.5 2.7s-1 1.2-1.7 1.8c-.7.5-1.8 1-3.3 1.7l-.8-2.3 2.4-1.1Zm1.3-4.3V223c0-.4 0-.7-.3-.9s-.5-.3-.8-.3-.6 0-.9.3c-.2.2-.3.5-.3.9s.1.6.3.8c.3.2.5.4.9.4h1.1ZM209.4 228.5c.3-.4.4-.7.5-1.1l.1-1.6V220h2.6v6c0 1-.1 1.7-.3 2.3-.2.6-.5 1.2-1 1.7l-1.9 1.7-1.4-1.9 1.4-1.2ZM219.3 226a4.5 4.5 0 0 1-2.3-4v-2h2.6v2c0 .5.2 1 .6 1.3.3.4.8.6 1.3.6h10.6c.1 0 .2 0 .2.2v2.3c0 .1 0 .2-.2.2h-10.6c-.8 0-1.5-.2-2.2-.6Zm11.8-1.4c-.4.5-.9 1-1.4 1.3s-1.3.4-2 .4-1.4-.1-2-.4-1-.8-1.4-1.3-.5-1.2-.5-2 .2-1.3.5-1.9a3.8 3.8 0 0 1 3.4-1.9 3.8 3.8 0 0 1 3.4 1.9c.3.6.5 1.2.5 2s-.2 1.3-.5 1.9Zm-2.6-2.7c-.2-.3-.5-.4-.8-.4s-.7.1-.9.4c-.2.2-.3.5-.3.8s.1.6.3.9c.2.2.5.3.9.3s.6-.1.8-.3c.3-.3.4-.5.4-.9s-.1-.6-.4-.8Zm-2-6.7h2.3v2.3h-2.3v-2.3Z" class="cls-9"/><path d="M232.1 223.9h1.2c.2 0 .4 0 .6-.3l.2-.6v-3h2.6v3c0 .3 0 .5.2.6.1.2.3.3.6.3h1.1c.2 0 .2 0 .2.2v2.3c0 .1 0 .2-.2.2h-1.1c-1 0-1.6-.3-2.1-.9-.6.6-1.3.9-2.1.9H232c-.1 0-.2 0-.2-.2v-2.3c0-.2 0-.2.2-.2Zm.5 4.2h2.3v2.3h-2.3V228Zm3.2 0h2.3v2.3h-2.3V228Z" class="cls-9"/><path d="M238.4 226.4v-2.3c0-.2.1-.2.2-.2h9.1c.1 0 .2 0 .2.2v2.3c0 .1 0 .2-.2.2h-9c-.2 0-.3 0-.3-.2Zm1.4-5.7c.3-.6.8-1 1.4-1.4.6-.3 1.3-.5 2-.5s1.3.2 2 .5c.5.4 1 .8 1.3 1.4.4.6.6 1.2.6 2s-.2 1.3-.6 1.9-.8 1-1.4 1.3a4.3 4.3 0 0 1-4 0 3.6 3.6 0 0 1-1.8-3.3c0-.7.1-1.3.5-1.9Zm2.5 2.9c.2.2.5.3.9.3s.6-.1.8-.3c.2-.3.4-.5.4-.9s-.2-.6-.4-.8c-.2-.3-.5-.4-.8-.4s-.7.1-.9.4c-.2.2-.3.5-.3.8s0 .6.3.9Zm-.3-8.4h2.3v2.3H242v-2.3Z" class="cls-9"/><path d="M247.5 226.4v-2.3c0-.2.1-.2.2-.2h3.7c1 0 1.7-.3 2.3-.9l1.8-1.5-2.5-1.2-.6-.2a1.2 1.2 0 0 0-.8.4l-1.6 1.9-1.8-1.6 1.6-2 1.2-.9a3.4 3.4 0 0 1 2.3-.1l.7.2 3.8 1.8H260v2.6h-2l-.4.3v.4a.8.8 0 0 0 .8.8h2c.2 0 .3 0 .3.2v2.3l-.2.2h-2c-.8 0-1.3-.2-1.8-.6-.5-.3-.8-.8-1-1.5l-.6.6c-.5.5-1.2.9-1.9 1.1-.7.3-1.4.4-2.2.4h-3.3c-.1 0-.2 0-.2-.2Zm6.1-10.2h-2.3V214h2.3v2.2Z" class="cls-9"/><path d="M260.3 215.6h2.3v2.3h-2.3v-2.3Zm0 10.8v-2.3c0-.2 0-.2.2-.2h2c.1 0 .3 0 .5-.3l.2-.6v-3.6h2.6v3.8a3.4 3.4 0 0 1-1.7 3c-.5.2-1 .4-1.7.4h-1.9c-.1 0-.2 0-.2-.2Zm3.2-10.8h2.3v2.3h-2.3v-2.3Z" class="cls-9"/><path fill="#01f8bc" stroke-width="0" d="M329.4 205.8h-42.2a5.9 5.9 0 0 0-6 6v19.7c0 3.3 2.7 5.9 6 5.9h42.2c3.2 0 5.9-2.7 5.9-5.9v-19.8c0-3.2-2.7-5.9-6-5.9Zm-41.7 7.7h3.7v3.4h-3.7v-3.4ZM298 230h-3.7v-3.5h3.7v3.5Zm-7.1.4H287l7.9-17.5h3.8l-8 17.5Zm21.9-11.6c.2.3.4.6.7.7.3.2.6.3 1 .3h4.6v4h-10a5 5 0 0 1-2.4-.6v7.3h-4v-17.4l4-1v5.8c0 .3.1.7.3 1a1.8 1.8 0 0 0 1.6 1h.4l-.1-.5-.3-.7a2 2 0 0 1-.1-.8 6 6 0 0 1 6-6h4.6v4h-4.6a2 2 0 0 0-2 2l.3 1Zm16.2 8.5h-5.4V222h5.4v5.5Z"/><circle cx="90.5" cy="75.9" r="7" fill="url(#linear-gradient-2)" stroke-width="0" transform="rotate(-67.4 90.5 76)"/><circle cx="251.3" cy="42.6" r="7" fill="url(#linear-gradient-3)" stroke-width="0"/><path fill="url(#linear-gradient-4)" stroke-width="0" d="M268.8 55.5s-.2-7 4.5-13.6c4.6-6.5 10.4-4 9.6 0s-10.3.2-14 13.6Z"/><path d="M286.9 54.3c6.9 7.2 2.2 17.9-3 24.6l1.7-2.9c3.7-6.7 6.5-15 1.3-21.7ZM265.1 54.1c1.1 5.5.3 11.4-1.8 16.6a23.8 23.8 0 0 1-11.6 11.8 25.5 25.5 0 0 0 11-12.1c2.2-5 3-10.8 2.4-16.3ZM244.5 26.9c-6.1 6.8-14 11.8-22.6 15a100.2 100.2 0 0 1-32.5 5c2.5 0 5-.2 7.5-.4 7.5-.8 14.9-2.2 22-4.4A61.3 61.3 0 0 0 244.6 27ZM124.3 39a47 47 0 0 1 28-16.9c3.6-.9 7.3-1.5 11-1.5a56.6 56.6 0 0 0-39 18.5ZM145.4 56a32.2 32.2 0 0 1-18.2 20.2c1-.6 2.1-1 3-1.8A41.5 41.5 0 0 0 145.4 56Z" class="cls-12"/><path fill="url(#linear-gradient-5)" stroke-width="0" d="M61.5 43.8s-12.2-1.5-15-7.3c-2.8-5.9-10.2-5.3-8.8.8 1.4 6 11.8 9.2 23.7 6.5Z"/><path fill="url(#linear-gradient-6)" stroke-width="0" d="M79.8 70.1s-2 5.9-9.2 7.2c-8 1.5-1.3 11 5.6 1.7 4-6.7 3.6-8.9 3.6-8.9Z"/><path fill="url(#linear-gradient-7)" stroke-width="0" d="M132.2 105.5s-6.6-1.4-11.3 2.6c-4.7 4-8.5 7.8-11.1 4-2.5-3.4 4.5-9.7 13.2-8.8 8 .8 9.2 2.2 9.2 2.2Z"/><path d="M7.7 107.8c12.3 4.8 25.4 7 38.5 7.9l6.2.3h6.2l6.2-.2c2.8-.1 5.5-.4 8.3-.6l-6.2.7c-2.4.3-5.9.4-8.3.5l-6.2.1-6.3-.2a112 112 0 0 1-38.4-8.5Z" class="cls-12"/><path fill="url(#linear-gradient-8)" stroke-width="0" d="M302.3 96.1s9.4 4 15.8 1 9.1-3 10.2-.4c1 2.6-2.6 8.1-10.3 7-7.7-1.3-13-4.2-15.7-7.6Z"/><path fill="url(#linear-gradient-9)" stroke-width="0" d="m303.7 112.2-2.8 13s-7.3-7.7-18.4-3.5c-11 4-21.2 9.3-28.3 2.5-7.7-7.3-.7-18 5-17.4 5.8.7 7.3 4.4 6.4 8.3-1 4-5.1 3.4-6.2 2-.9-1-1.5-3.6.5-5-2.8.4-4.3 6.2-.7 8 3.4 2 6.4 1.4 11.8-4a25.3 25.3 0 0 1 32.7-4Z"/><path fill="url(#linear-gradient-10)" stroke-width="0" d="m203.7 92.8 6.2 5.4s-6.4 2.1-7.3 7.5c-.6 4.2 3.5 5 5 3.3-1.5.9-4.7-.8-3.1-3.9 1.6-3 6.4-1.8 7 1.6.7 3.4-2.3 7.4-7.7 7 0 0-7.9-.8-6.1-11 1.2-7.4 6-9.9 6-9.9Z"/><path fill="url(#linear-gradient-11)" stroke-width="0" d="M234.5 57.6s-6.6-7-14-4.4c-6 2.1-2.3 6.9 2.2 4.7s8.5-1.6 11.8-.3Z"/><path d="M228.4 133.6a104.1 104.1 0 0 1-44 21.3l-7.6 1.5-7.8 1.1c-2.9.2-7.4.7-10.3.7l-7.8.2c3-.2 7.4-.3 10.4-.6l7.7-.7 7.7-1.2c5-1 10.1-2.2 15-3.7 13.2-4 26-9.9 36.7-18.6Z" class="cls-12"/><circle cx="162.4" cy="112.4" r="7" fill="url(#linear-gradient-12)" stroke-width="0"/><path fill="url(#linear-gradient-13)" stroke-width="0" d="M246 17.8C242.6 14.6 230.8 4 226.4.3c-.6-.5-1.6-.4-2 .2-14.5 18-50.6 24.3-75.8 33.5-25.7 9.3-28.9 40.3-28.9 40.3l6 1.2s-.5-6.4 10-18.3c10.5-12 41.7-9.9 69-14.2a71 71 0 0 0 41.6-23.2c.5-.6.5-1.5-.1-2Zm-72.5 18.8-6.5.7c-2 .2-4.6.7-6.5 1l-4.8 1a57.2 57.2 0 0 0-13.6 5.3 26 26 0 0 0-9.7 8.6c1-2 2.5-3.6 4.2-5a47.4 47.4 0 0 1 19-9.4l4.8-1c2-.4 4.6-1 6.5-1.1l6.5-.7c18.5-1.9 40-8.3 54.2-20.8-13.8 13-35.5 19.6-54.1 21.4Z"/><path fill="url(#linear-gradient-14)" stroke-width="0" d="m116.2 51.3-15.3-3c-1-.2-2 .5-2.1 1.5-.7 5.5-2.4 6.8-3.9 6.8-1.6 0-3.6-2-2-8.7 2-7.9 13.4-21.8 0-25.6-13.6-3.9-11.6 15-16.1 25.4-4.6 10.3-37.1.5-37.1.5l-6.5 20s12.9 8.1 28 5.6c17-3 23.2-17.4 23.3-28.4 0-11 3-16 7-15.2 3.8.7 4 5.3-1.2 14.4-5.1 8.8-5.5 17.4-2.7 22.5 0 .2.3.3.4.2 5.5-1.2 8.6 1.2 10.7 5.1.1.2.3.3.4.3 17-1.7 18.4-15.2 18.5-19.7 0-.8-.6-1.6-1.5-1.7Zm-49 8.8c-5.4 1.2-11 .2-16.4-1.3 2.7.5 5.4 1 8.2 1.2 8 .6 17-2 21-9.7-2.1 5.3-7.4 8.8-12.8 9.8Zm37.6 7.5c-1.1.5-2.5.9-3.7 1.2l3.5-1.6.6-.3c4.6-2.7 7.6-7.3 8-12.8.4 5.7-3.2 11.3-8.4 13.5Z"/><path fill="url(#linear-gradient-15)" stroke-width="0" d="M158.5 76.9c0-.4-.3-.6-.6-.6l-3.5-.5c-.4 0-.7.2-.8.6-2.3 11.5-14.3 19.6-18.2 22-.6.5-.8 1.3-.3 2 1.9 2 5.8 6.6 8 8.8.4.5 1.1.5 1.6.1 14-11.3 14-29.1 13.8-32.4Zm-15.6 23-3 1c8-2.8 12.4-10.8 15.4-18.2-1.9 6.9-5.8 14-12.4 17.2Z"/><path fill="url(#linear-gradient-16)" stroke-width="0" d="M157.2 51.8H153a1 1 0 0 0-1 .9c-.9 4-5.9 21.5-33.4 31.8C87.3 96.2 33 77 25.5 74.3a1 1 0 0 0-1.4.5L9.8 100.1a1 1 0 0 0 .7 1.5c7.4 2 45.5 11 93.5 3.5 48.7-7.5 53.7-45.1 54.3-52.2a1 1 0 0 0-1-1.1Zm-37.7 40c-21.9 8.1-46 7.2-68.6 3.4-4-.7-9.6-2-13.6-2.8 4 .8 9.6 1.8 13.6 2.4 22.7 3.5 46.6 4.4 68.4-3.4a53 53 0 0 0 23-15 51.9 51.9 0 0 1-22.8 15.4Z"/><path fill="url(#linear-gradient-17)" stroke-width="0" d="M262 54.1a1 1 0 0 0-1.1-.8l-13.2 1.5c-.7.1-1.1.8-1 1.4 1.7 6 .1 17-5.6 17 1-12-13.4-16.2-18.3-7.2-5.7 10.2 3.9 16.6 11.5 15.5-8.2 15-21 15-21.2 15.2s7.2 7.7 8.8 9.2c15-4.2 18.6-25 18.6-25 25.2-3.6 22.6-22.3 21.6-26.8Zm-38.3 46.5c.8-.5 1.6-.8 2.3-1.4a26 26 0 0 0 10.3-15c-1 7-5.6 14-12.6 16.4Zm12.9-25.8a2 2 0 1 1-4-.6 2 2 0 1 1 4 .6Zm14.1-2c-.6.7-1.3 1.2-2 1.7.6-.6 1.3-1.2 1.8-1.9 3.9-4.4 6-10.3 5.4-16.2 1.5 5.9-.8 12.3-5.2 16.5Z"/><path fill="url(#linear-gradient-18)" stroke-width="0" d="M218.7 70.3c-2.9-2.5-12.3-3.3-18.4 7.3-6.2 10.6-6.5 11.3-9.5 11.2-2.4-.4-1.8-4-1.8-4l-6.5-.8s2.7 12.2-4.6 12.8c-7 .5-.4-20.3 6.8-35.5.2-.5 0-1-.6-1.1-4.7-.7-18.8-3.3-22.1-4-.4 0-.8.3-.9.7a83 83 0 0 0-2.7 16.8l2.7.2c.4 0 .7.3.7.6.1 2.3.3 10.3-3.1 19a14.5 14.5 0 0 0 2.2 10.3s4.3-1.3 8 2.2c2.1 2.5 2.4 4.6 2.4 4.6s11.1 3.1 17.7-16.7c4.8 3.4 9.5 2.3 14.2-5.7 0 0 14.1 8.4 20-5.9-3-1.3-6.5-5.3-4.6-12Zm-50.8 6c.3-1.2.7-3.3 1.1-4.5l1.4-4.4c-.7 3-1.5 6-2 9-1.5 7-3.7 21.8 4 25.8-8.3-3.6-6.3-18.8-4.6-25.9Zm41.8 5.5c-.2.9-.9 1.6-1.7 1.8a2.4 2.4 0 1 1 1.7-1.8Z"/><path fill="url(#linear-gradient-19)" stroke-width="0" d="M192 63.7s6.6 0 8.3-1.3c-3.5-.5-4.5-4-3.2-6.4s8.7-4.7 9.5 3c.7 7.7-5.5 11.4-9 12.3-1.5-1.8-5.7-7.6-5.7-7.6Z"/><path fill="url(#linear-gradient-20)" stroke-width="0" d="m327.2 71.8-15.5.4c-.7 0-1.2.6-1.1 1.2.1 2.5.1 8.3-3 8.6-2.9.2-2.7-2.7-2.5-4.2.1-.5-.2-1-.8-1l-4-.4c-.5 0-1 .5-.9 1 .4 2.6 1 8.5-1.6 8.5s-3-3-3-4.4c0-.4-.3-.7-.7-.7l-5.8-.4c-.4 0-.8.3-.9.6-1.7 7-3.7 12-7.7 11.8-4-.2-4.9-6.6 1-16.4 5-8.7 6-25.5-3.4-21.3-2.2 1-4 2.7-5.2 4.7-10.3 17.4-13.7 25.7-29 37.5a122.2 122.2 0 0 1-59 24.7c-49.7 6.5-95.3-12.3-95.3-12.3s-16 29.2-17.1 32.2c8.2 4 54 14 102.5 7 48.6-7 75.9-42 83.9-53.1 8-11 13.7-31.4 18.8-31.5 5-.1 1.1 10.2-2.4 16.5-4.3 7.7-10.4 23.2.4 25.8 10.8 2.7 17.3-15.5 17.3-15.5a8 8 0 0 0 6.3 2c3.9-.6 7-5 7-5s5.5 4 12.7 1c8.2-3.7 9.8-12.8 10.1-16.1.1-.7-.4-1.3-1.1-1.2ZM207.5 126a148 148 0 0 1-58.3 13c-16.7.2-33.8-2.2-49.3-8.6a146.3 146.3 0 0 0 105.7-4c4.7-1.9 9.5-4.2 14-6.5a221 221 0 0 1-12.1 6Zm69.2-26.8a12 12 0 0 1-2.4-1.6c.8.5 1.6 1 2.5 1.3 7.2 2.8 10.6-6.5 12.4-11.8-1 5.8-5.1 15.6-12.5 12.1ZM312 85.7c.7 0 1.4-.2 2-.4 5-1.2 7.6-6.4 8.3-11.1.2 6-3.8 12-10.3 11.5Z"/></g></svg>