<?xml version="1.0" encoding="UTF-8"?>
<svg id="Layer_1" data-name="Layer 1" xmlns="http://www.w3.org/2000/svg" viewBox="0 0 150 150">
  <defs>
    <style>
      .cls-1 {
        fill: #fff;
      }

      .cls-2 {
        fill: #00b3ff;
      }
    </style>
  </defs>
  <circle class="cls-2" cx="64.9" cy="71.13" r="56.32"/>
  <g>
    <path class="cls-1" d="m82.32,48.95c.05-.83-.58-1.54-1.4-1.59-.82-.05-1.54.58-1.59,1.4v.19c-.04.51-.07.92-.15,1.24-.02-.01-.04-.02-.06-.03-2.19-1.58-4.71-1.92-7.09-.95-2.61,1.06-4.62,3.53-5.11,6.3-.75,4.19.29,7.56,3.07,10.02,1.44,1.28,2.92,1.91,4.45,1.91,1.38,0,2.81-.52,4.3-1.56.18-.12.31-.26.42-.39.19-.08.37-.17.53-.27.11.14.22.28.33.43,1.02,1.39,2.46,2.25,4.07,2.44,1.63.18,3.26-.35,4.58-1.49,2.45-2.12,3.17-4.96,3.59-7.72.73-4.84-.88-9.26-4.79-13.15-5.98-5.95-15.54-6.59-22.24-1.5-5.08,3.86-7.47,9.17-6.9,15.38.66,7.21,5.52,12.97,12.69,15.03,1.52.44,3.06.53,4.51.58.02,0,.04,0,.06,0,.8,0,1.47-.64,1.5-1.44.03-.83-.62-1.52-1.44-1.55-1.32-.05-2.6-.12-3.79-.46-6.04-1.74-9.97-6.38-10.53-12.42-.47-5.19,1.45-9.47,5.73-12.72,5.52-4.19,13.39-3.65,18.31,1.24,3.24,3.22,4.53,6.68,3.94,10.58-.38,2.53-.97,4.5-2.59,5.9-.68.59-1.49.87-2.28.78-.77-.09-1.47-.52-1.99-1.23-.24-.33-.5-.66-.75-.98.42-1.06.48-2.21.53-3.12v-.24c.15-2.35.16-4.87-.65-7.38.61-1.03.68-2.14.73-3.05v-.18Zm-4.5,13.85c-.45.17-.72.47-.9.69-1.94,1.32-3.29,1.26-4.95-.21-2-1.77-2.67-4.07-2.11-7.25.31-1.72,1.66-3.39,3.29-4.05.43-.17.96-.31,1.57-.31.78,0,1.68.23,2.64.92.46.33.96.5,1.39.62.62,2.01.6,4.15.48,6.17v.25c-.12,1.97-.27,2.75-1.42,3.18Z"/>
    <path class="cls-1" d="m127.05,120.14c.25-.65.45-1.36.45-2.18,0-17.39,0-34.78,0-52.17v-4.01c0-.68,0-1.94-.98-2.99-.6-.64-1.13-1.34-1.69-2.09-.26-.34-.52-.69-.79-1.03-.62-.79-1.34-1.46-2.03-2.12-.28-.27-.56-.53-.85-.82-.42-.42-1.05-1.05-2.07-1.22-.12-.02-.24-.04-.43-.68-.11-.37-.17-.71-.16-1.06,0-1.3,0-2.59,0-3.89v-1.43c0-.83-.67-1.5-1.5-1.5s-1.5.67-1.5,1.5v1.43c0,1.29,0,2.58,0,3.87,0,.65.09,1.29.29,1.95.06.19.17.52.34.88-.44.82-.65,1.76-.64,2.85.02,1.49.04,3.09,0,4.67-.03,1.32.21,2.45.74,3.47-.05.1-.15.24-.22.35-.17.25-.36.53-.51.87-.06.06-.18.17-.27.24-.15.13-.31.26-.44.4l-3.46,3.45c-8.65,8.62-17.3,17.23-25.95,25.85-.4.4-.85.87-1.24,1.45-1.1-.33-2.14-.94-3.22-1.59-.53-.32-1.07-.64-1.61-.93-2.67-1.42-5.21-1.43-7.79-.01-.5.27-.98.56-1.47.85-1.15.69-2.26,1.33-3.44,1.7-.39-.58-.85-1.06-1.26-1.47-7.46-7.42-14.91-14.84-22.36-22.27l-7.06-7.03c-.14-.14-.29-.27-.44-.39-.09-.07-.21-.18-.27-.24-.15-.34-.34-.62-.51-.87-.07-.1-.17-.25-.22-.35.54-1.01.78-2.15.74-3.47-.04-1.59-.02-3.18,0-4.67,0-.18.03-.63.06-1.25.33-6.41.27-8.59-.06-9.59,0-.49,0-.98,0-1.47,0-2.83.01-5.66-.02-8.49-.01-1.05.43-2.07,1.24-2.88.82-.82,1.96-1.31,2.89-1.29,3.33.07,6.7.06,9.95.05,1.81,0,3.61-.01,5.41,0,.73,0,1.94-.06,3.03-.67.14-.08.2-.09.18-.06.96.64,1.99.73,2.79.73h4.44c8.15,0,16.58-.02,24.86.02h.02c.85,0,1.53-.3,2.08-.54.22-.1.54-.24.64-.24.28.05.6.16.93.28.63.22,1.43.49,2.34.49,2.35-.02,4.71-.01,7.06,0,2.8,0,5.61,0,8.41-.02,1.87-.02,3.67,1.54,3.91,3.33.18,1.34.15,2.71.12,4.16-.02.87-.04,1.74,0,2.61.02.83.73,1.48,1.54,1.45.83-.03,1.48-.72,1.45-1.54-.02-.82,0-1.64,0-2.46.03-1.5.06-3.05-.15-4.62-.44-3.28-3.5-5.93-6.85-5.93-.02,0-.04,0-.06,0-2.79.03-5.58.02-8.37.02-2.36,0-4.72,0-7.08,0-.45,0-.83-.15-1.33-.32-.2-.07-.42-.15-.65-.22-.52-1.47-1.56-2.46-2.5-3.35l-.34-.33c-2.17-2.1-4.31-4.22-6.45-6.34-1.31-1.3-2.62-2.6-3.94-3.9-2.06-2.03-4.38-2.78-6.9-2.24-1.47.32-2.81,1.09-4.09,2.35l-2.31,2.3c-2.67,2.65-5.43,5.4-8.18,8.05l-.14.13c-.93.9-1.97,1.9-2.49,3.38-.13.06-.26.11-.4.18-.37.21-.84.29-1.57.29-1.81,0-3.62,0-5.44,0-3.24.01-6.59.02-9.88-.05-1.78-.04-3.67.77-5.07,2.16-1.4,1.38-2.15,3.18-2.13,5.04.03,2.82.03,5.63.02,8.45,0,2.14,0,4.28,0,6.42,0,.64-.17,1.24-.45,1.91-2.96,1.25-4.74,3.6-6.22,5.96-.03.04-.05.08-.08.12-1.51.96-2.28,2.43-2.27,4.35,0,2.77,0,5.55,0,8.32,0,3.46,0,6.91.02,10.37,0,.15-.03.29-.05.43-.08.48-.19,1.13.05,1.87.21.64.79,1.04,1.43,1.04.15,0,.31-.02.46-.07.79-.25,1.22-1.1.97-1.88-.01-.07.03-.31.05-.46.04-.26.1-.58.09-.94-.02-3.45-.02-6.9-.02-10.35,0-2.78,0-5.55,0-8.33,0-.9.26-1.43.91-1.83.53-.33.79-.75.97-1.04,1.24-1.98,2.46-3.52,4.16-4.45-.02.4-.03.7-.04.84-.02,1.52-.04,3.15,0,4.79.02.82-.11,1.46-.41,2.01-.85,1.57,0,2.82.41,3.42.1.15.21.31.25.4.26.62.73,1.02,1.08,1.31.09.07.18.15.25.22l7.06,7.03c7.45,7.42,14.91,14.85,22.36,22.27.28.28.54.54.75.81-.88.69-1.91,1.22-2.99,1.77-.45.23-.9.46-1.34.7-6.48,3.55-12.95,7.12-19.41,10.7l-7.43,4.11c-2.05,1.14-4.1,2.27-6.16,3.4-.06.04-.19.08-.35.12-.06-.31-.09-.63-.09-.99.02-8.46.02-16.92,0-25.38,0-.74-.04-1.48-.07-2.22l-.04-.95c-.03-.83-.71-1.48-1.56-1.44-.83.03-1.47.73-1.44,1.56l.04.98c.03.69.07,1.38.07,2.08,0,8.46.01,16.92,0,25.37,0,.97.15,1.84.45,2.65-.43.71-.58,1.55-.39,2.4.65,2.98,2.49,4.87,5.47,5.62.12.03.24.05.37.05h92.51c.11,0,.23-.01.34-.04,2.53-.59,4.34-2.23,5.25-4.73.45-1.25.2-2.32-.1-3.2-.01-.03-.03-.06-.04-.09ZM61.23,25.83l.14-.14c2.77-2.67,5.54-5.42,8.21-8.08l2.31-2.3c.87-.86,1.7-1.36,2.61-1.55,1.51-.32,2.83.14,4.17,1.45,1.31,1.29,2.62,2.59,3.93,3.89,2.15,2.13,4.3,4.27,6.48,6.37l.36.34c.55.52,1.01.98,1.35,1.48-.3.13-.59.25-.79.25h0c-8.29-.04-16.72-.03-24.88-.03h-4.43c-.38-.02-.66-.04-.87-.11.34-.53.83-1.02,1.41-1.58Zm52.2,45.19l3.46-3.45c.08-.08.17-.15.25-.22.34-.29.82-.69,1.08-1.31.04-.09.15-.25.25-.4.41-.6,1.26-1.85.41-3.42-.3-.55-.43-1.19-.41-2.01.04-1.64.03-3.26,0-4.79,0-.36.03-.66.1-.93,0,0,0,0,.01,0,.07.01.3.25.45.39.29.29.59.58.89.86.64.6,1.24,1.18,1.73,1.8.25.32.5.65.75.98.59.77,1.19,1.58,1.9,2.33.11.12.17.3.17.94v4.01c0,17.39,0,34.78,0,52.17,0,.17-.03.34-.07.51-.21-.08-.44-.2-.75-.38l-35.85-19.68c-.43-.24-.82-.45-1.12-.7.21-.27.47-.55.77-.84,8.65-8.61,17.3-17.23,25.95-25.85Zm10.93,51.39c-.55,1.52-1.48,2.41-2.95,2.79H29.29c-1.75-.49-2.71-1.52-3.1-3.3-.03-.14,0-.19.01-.2.05-.07.17-.16.4-.2.57-.11,1.06-.27,1.48-.51,2.06-1.13,4.11-2.27,6.16-3.41l7.43-4.11c6.47-3.57,12.93-7.14,19.41-10.69.42-.23.84-.44,1.26-.66,1.19-.61,2.43-1.24,3.56-2.15.19-.15.37-.34.54-.53.03-.03.06-.07.09-.1,1.93-.41,3.5-1.35,5.03-2.26.46-.27.91-.54,1.38-.8,1.67-.91,3.19-.9,4.93.03.5.27.99.56,1.48.86,1.42.85,2.89,1.73,4.68,2.1.7.86,1.57,1.34,2.35,1.77l35.53,19.5.28.16c.57.33,1.26.72,2.15.83.11.39.11.63.01.89Z"/>
  </g>
</svg>