<?xml version="1.0" encoding="UTF-8"?>
<svg id="Layer_1" data-name="Layer 1" xmlns="http://www.w3.org/2000/svg" viewBox="0 0 150 150">
  <defs>
    <style>
      .cls-1 {
        fill: #fff;
      }

      .cls-2 {
        fill: #00b3ff;
      }
    </style>
  </defs>
  <circle class="cls-2" cx="91.92" cy="86.91" r="56.32"/>
  <path class="cls-1" d="m30.37,23.52h89.46c1.17.42,2.36.77,3.37,1.54,2.41,1.84,3.56,4.27,3.56,7.3,0,28.5,0,57.01,0,85.51,0,.23,0,.47-.01.7-.08,1.8-.67,3.42-1.77,4.83-1.88,2.4-4.39,3.36-7.4,3.36-28.3-.02-56.6-.01-84.91-.01-.34,0-.67,0-1.01-.01-1.84-.08-3.46-.71-4.92-1.81-1.72-1.3-2.61-3.11-3.21-5.11V30.37c.43-1.23.84-2.45,1.64-3.52,1.33-1.77,3.15-2.72,5.21-3.33Zm-3.34,51.55c0,14.04,0,28.07,0,42.11,0,3.96,1.95,5.98,5.82,5.98,12.49.02,24.98,0,37.47.02.98,0,1.27-.34,1.27-1.29-.03-9.37-.01-18.74-.02-28.1,0-1.26-.06-1.32-1.3-1.32-3.73,0-7.45-.03-11.18.01-.98,0-1.38-.29-1.37-1.32.03-6.08.01-12.15.02-18.23,0-1.28.06-1.33,1.4-1.33,3.73,0,7.45-.03,11.18.02.98.01,1.29-.33,1.27-1.29-.05-2.32,0-4.63-.02-6.95-.05-6.62,2.39-12.19,7.17-16.7,4.17-3.94,9.14-6.05,14.92-6.07,5.41-.02,10.81,0,16.22,0,1.42,0,1.47.04,1.47,1.48,0,5.98,0,11.95,0,17.93,0,1.43-.05,1.47-1.47,1.47-5.14,0-10.27,0-15.41,0-1.5,0-2,.5-2.01,1.99-.02,2.25-.01,4.5,0,6.75,0,1.32.05,1.37,1.36,1.37,4.8,0,9.6,0,14.4,0,1.37,0,1.39.02,1.39,1.42,0,5.98,0,11.95,0,17.93,0,1.47-.04,1.51-1.53,1.52-4.8,0-9.6.01-14.4,0-.82,0-1.23.22-1.23,1.13.02,9.5.02,19,0,28.51,0,.76.26,1.09,1.06,1.09,8.06-.02,16.12.03,24.17-.03,3.48-.03,5.35-2.01,5.48-5.5.01-.3,0-.6,0-.91,0-27.77,0-55.54,0-83.3,0-.3,0-.6,0-.91-.15-3.48-2.03-5.35-5.52-5.48-.3-.01-.6,0-.91,0-27.77,0-55.54,0-83.3,0-.3,0-.6,0-.91,0-3.48.15-5.35,2.03-5.48,5.52-.01.4,0,.81,0,1.21,0,13.77,0,27.53,0,41.3Zm61.7,30.96c0-5.17,0-10.34,0-15.51q0-1.78,1.74-1.79c4.73,0,9.47-.02,14.2.01.93,0,1.24-.31,1.23-1.23-.04-3.66-.01-7.32-.02-10.98,0-1.32-.05-1.37-1.36-1.37-4.87,0-9.73-.02-14.6.01-.83,0-1.22-.2-1.21-1.12.04-3.66-.02-7.32.03-10.98.03-2.84,1.82-4.82,4.61-5.21.6-.08,1.2-.13,1.8-.13,3.76-.01,7.52-.03,11.28,0,.9,0,1.25-.27,1.24-1.21-.04-3.66-.04-7.32,0-10.98.01-.98-.33-1.28-1.29-1.27-4.2.04-8.39.05-12.59,0-5.09-.06-9.36,1.85-12.94,5.35-3.91,3.81-5.63,8.57-5.68,13.98-.03,3.46-.03,6.92.01,10.37.01.93-.31,1.21-1.22,1.2-3.76-.04-7.52,0-11.28-.03-.89,0-1.26.24-1.25,1.19.04,3.73.04,7.45,0,11.18,0,.93.31,1.23,1.23,1.22,3.62-.04,7.25-.02,10.88-.01q1.62,0,1.62,1.58c0,10.51,0,21.01,0,31.52,0,1.27.05,1.32,1.29,1.32,3.66,0,7.32,0,10.98,0,1.24,0,1.29-.05,1.29-1.32,0-5.27,0-10.54,0-15.81Z"/>
</svg>