<svg class="svg-icon" style="width: 1em; height: 1em;vertical-align: middle;fill: currentColor;overflow: hidden;" viewBox="0 0 1024 1024" version="1.1" xmlns="http://www.w3.org/2000/svg"><path d="M640 597.333333c-113.92 0-341.333333 56.746667-341.333333 170.666667v85.333333h682.666666v-85.333333c0-113.92-227.413333-170.666667-341.333333-170.666667m-384-170.666666V298.666667H170.666667v128H42.666667v85.333333h128v128h85.333333v-128h128v-85.333333m256 85.333333a170.666667 170.666667 0 0 0 170.666667-170.666667 170.666667 170.666667 0 0 0-170.666667-170.666666 170.666667 170.666667 0 0 0-170.666667 170.666666 170.666667 170.666667 0 0 0 170.666667 170.666667z" fill="" /></svg>