<?xml version="1.0" encoding="UTF-8"?>
<svg id="Layer_1" data-name="Layer 1" xmlns="http://www.w3.org/2000/svg" viewBox="0 0 150 150">
  <defs>
    <style>
      .cls-1 {
        fill: #fff;
      }

      .cls-2 {
        fill: #00b3ff;
      }
    </style>
  </defs>
  <circle class="cls-2" cx="59.5" cy="71.07" r="56.32"/>
  <path class="cls-1" d="m126.67,56.81c-1.43,3.02-3.79,5.32-6.03,7.7-1.07,1.15-2.22,2.22-3.39,3.28-.57.52-.77,1.08-.78,1.84-.19,10.22-2.49,19.94-7.12,29.05-5.22,10.26-12.96,18.07-23.09,23.54-5.63,3.04-11.57,5.26-17.83,6.52-5.5,1.11-11.08,1.19-16.67.79-6.05-.43-11.89-1.75-17.5-4.06-3.26-1.34-6.3-3.09-9.14-5.18-.6-.44-1.14-.93-1.24-1.74-.17-1.37.89-2.42,2.37-2.26,2.56.29,5.13.35,7.71.27,5.16-.16,10.06-1.31,14.57-3.89.69-.39,1.37-.81,2.02-1.47-1.08-.4-2.08-.73-3.05-1.14-6.16-2.59-10.1-7.19-12.08-13.51-.4-1.26-.01-1.95,1.52-2.95-1.4-1.16-2.74-2.35-3.88-3.75-3.47-4.27-4.87-9.22-4.76-14.65.03-1.73,1.56-2.58,3.12-1.81.23.11.46.22.74.35.04-.53-.29-.8-.48-1.12-2.17-3.77-3.59-7.76-3.56-12.17.03-3.83,1.13-7.38,3.03-10.68.85-1.48,2.39-1.59,3.58-.28,2.62,2.87,5.43,5.54,8.45,7.98,5.37,4.34,11.19,7.91,17.76,10.15,3.3,1.12,6.69,1.86,10.19,2.01.89.04,1.19-.24,1.13-1.14-.33-4.8.68-9.28,3.18-13.43,6.82-11.34,22.04-14.1,32.28-5.74,1.23,1.01,2.37,1.16,3.73.94,2.98-.47,5.74-1.51,8.27-3.18.28-.18.56-.37.84-.55.77-.5,1.56-.61,2.35-.09.82.53,1.09,1.33.96,2.26-.25,1.79-1,3.39-2.01,4.87-.46.67-.94,1.33-1.52,2.16,1.17-.19,2.04-.59,2.87-1.08,1.55-.92,2.47-.72,3.48.73v1.4Zm-9.85-3.59c-2.24.68-4.49,1.12-6.79,1.36-1.52.15-2.76-.11-3.93-1.23-2.84-2.73-6.29-4.26-10.2-4.67-10.11-1.08-19.31,7.02-19.59,17.19-.05,1.92.27,3.79.46,5.68.13,1.27-.65,2.1-1.93,2.19-2.47.19-4.95.09-7.4-.27-6.92-1.01-13.25-3.63-19.19-7.26-5.13-3.14-9.76-6.92-14.01-11.17-.76-.76-.77-.76-1.13.3-1.29,3.82-1.18,7.62.18,11.4,1.29,3.6,3.45,6.62,6.17,9.27.71.7,1.03,1.49.65,2.45-.37.92-1.15,1.25-2.08,1.29-1.18.06-2.34,0-3.47-.35-.59-.18-1.2-.34-1.9-.53.45,3.41,1.7,6.35,3.86,8.87,2.47,2.88,5.63,4.67,9.24,5.74,1.17.35,1.78,1.06,1.81,2.01.03.93-.56,1.65-1.71,2.1-1.46.57-2.99.72-4.53.65-.74-.03-.79.19-.44.78.55.96,1.14,1.89,1.86,2.73,3.23,3.74,7.37,5.66,12.26,6,.97.07,1.79.36,2.16,1.34.34.91.06,1.7-.61,2.38-.89.91-1.77,1.82-2.77,2.61-4.8,3.83-10.38,5.69-16.4,6.43-.99.12-1.99.21-3.06.31.29.41.64.47.94.6,4.81,2.12,9.87,3.29,15.09,3.85,5.52.59,11.02.46,16.48-.4,4.38-.69,8.55-2.16,12.62-3.87,7.61-3.19,14.28-7.75,19.66-14.04,8.73-10.2,12.67-22.23,13.22-35.48.24-5.72-.71-3.82,3.49-7.97.94-.93,1.91-1.82,2.87-2.73-1.66.02-3.14.24-4.62.44-1.07.14-1.97-.37-2.35-1.31-.37-.9-.1-1.75.87-2.54,1.52-1.25,3-2.54,4.21-4.13Z"/>
</svg>