<?xml version="1.0" encoding="UTF-8"?>
<svg id="Layer_1" data-name="Layer 1" xmlns="http://www.w3.org/2000/svg" viewBox="0 0 150 150">
  <defs>
    <style>
      .cls-1 {
        fill: #fff;
      }

      .cls-2 {
        fill: #00b3ff;
      }
    </style>
  </defs>
  <circle class="cls-2" cx="62.42" cy="66.68" r="56.32"/>
  <g>
    <path class="cls-1" d="m126.66,58.11v43.69c-.28,1.2-.45,2.41-.76,3.61-2.49,9.41-11.59,16.59-21.33,16.64-13.3.06-26.6.02-39.9.01-2.24,0-4.4-.44-6.52-1.14-9.36-3.08-15.75-12.05-15.67-22,.1-12.64.02-25.29.03-37.93,0-1.09,0-2.19.17-3.27,1.27-8.1,5.56-14,12.89-17.68,2.27-1.14,4.72-1.7,7.21-2.13,14.56,0,29.13,0,43.69,0,.19.04.37.1.56.13,8.29,1.37,14.22,5.86,17.79,13.46.98,2.1,1.46,4.34,1.85,6.61Zm-40.66,58.9c5.44-.12,12.29.28,19.12-.15,6.6-.42,11.39-3.8,14.54-9.55,1.5-2.73,1.99-5.72,2-8.79.02-11.38,0-22.77,0-34.15,0-1.64.03-3.28-.11-4.92-.57-6.59-3.84-11.39-9.58-14.54-2.75-1.51-5.77-1.99-8.87-2-11.47-.01-22.93,0-34.4,0-1.5,0-3.01-.02-4.51.11-6.69.55-11.54,3.87-14.69,9.73-1.46,2.72-1.92,5.68-1.92,8.73-.01,11.47,0,22.93,0,34.4,0,1.5-.02,3.01.11,4.51.55,6.69,3.87,11.54,9.73,14.69,2.67,1.43,5.58,1.91,8.56,1.92,6.21.03,12.42,0,20.04,0Z"/>
    <path class="cls-1" d="m84.62,103.01c-12.76,0-23.07-10.31-23.06-23.07,0-12.76,10.32-23.05,23.09-23.04,12.75.01,23.04,10.34,23.02,23.11-.02,12.71-10.33,23-23.05,23Zm17.88-22.14c.65-9.6-7-18.68-17.64-18.87-9.25-.17-17.99,7.12-18.19,17.73-.17,9.25,7.12,17.99,17.74,18.17,9.7.17,17.75-7.58,18.09-17.03Z"/>
    <path class="cls-1" d="m108.16,62.44c-3.84,0-6.87-3.04-6.86-6.89,0-3.76,3.1-6.86,6.85-6.85,3.77,0,6.91,3.16,6.89,6.92-.02,3.75-3.11,6.82-6.88,6.82Zm.01-8.56c-.97-.01-1.73.72-1.74,1.68-.01.96.74,1.73,1.7,1.74.97.02,1.72-.73,1.73-1.69,0-.98-.71-1.72-1.68-1.73Z"/>
  </g>
</svg>