<?xml version="1.0" encoding="UTF-8"?>
<svg id="Layer_1" data-name="Layer 1" xmlns="http://www.w3.org/2000/svg" viewBox="0 0 150 150">
  <defs>
    <style>
      .cls-1 {
        fill: #fff;
      }

      .cls-2 {
        fill: #00b3ff;
      }
    </style>
  </defs>
  <circle class="cls-2" cx="84.57" cy="75.23" r="56.32"/>
  <g>
    <path class="cls-1" d="m127.48,87.5c-.39,2.99-.72,6-1.58,8.9-6.1,20.62-19.59,33.69-40.64,38.05-16.54,3.42-31.55-.83-44.38-11.93-9.73-8.42-15.64-19.13-17.31-31.87-2.36-17.98,3.14-33.41,16.35-45.89,7.85-7.41,17.3-11.72,27.98-13.33,1.04-.16,2.08-.26,3.12-.39,2.85,0,5.71,0,8.56,0,1.91.28,3.85.43,5.72.86,20.95,4.8,34.5,17.52,40.6,38.14.86,2.9,1.19,5.91,1.58,8.9v8.56Zm-52.19,44.44c26.78.17,48.76-21.92,48.77-48.7,0-26.78-21.95-48.76-48.74-48.77-26.78,0-48.76,21.95-48.77,48.74,0,26.78,21.95,48.89,48.74,48.73Z"/>
    <path class="cls-1" d="m59.47,108.79c3.84-2.13,7.46-4.14,11.08-6.15,1.81-1,3.64-1.97,5.43-3.03,1.01-.6,1.93-.59,2.99-.13,3.82,1.68,7.68,3.28,11.5,4.96.85.37,1.17.28,1.35-.69.89-4.67,1.85-9.32,2.79-13.97.07-.37.13-.74.23-1.1.3-1.08,1.14-1.64,2.12-1.42.92.2,1.48,1.06,1.29,2.11-.41,2.27-.87,4.53-1.32,6.79-.73,3.66-1.47,7.32-2.2,10.98-.37,1.83-1.3,2.36-3,1.64-4.28-1.82-8.56-3.64-12.82-5.5-.89-.39-1.59-.4-2.47.09-5.71,3.22-11.44,6.39-17.17,9.58-2.02,1.13-3.32.41-3.33-1.92-.03-4.82-.03-9.65.01-14.47,0-.94-.29-1.46-1.15-1.88-4.79-2.34-9.55-4.75-14.32-7.13-.24-.12-.48-.25-.73-.36-.77-.34-1.32-.89-1.33-1.76-.02-.89.58-1.39,1.32-1.77,5.46-2.82,10.92-5.65,16.38-8.47,15.44-7.99,30.88-15.98,46.32-23.97.82-.42,1.63-.73,2.48-.1.81.62.73,1.47.56,2.33-1.81,9.08-3.63,18.16-5.45,27.25-.27,1.37-1.05,2.09-2.05,1.92-1.18-.2-1.69-1.13-1.4-2.58,1.55-7.75,3.09-15.5,4.64-23.26.05-.26.26-.57.01-.76-.25-.19-.51.08-.74.2-10.86,5.61-21.72,11.23-32.58,16.85-7.51,3.88-15.02,7.76-22.53,11.65-.24.12-.48.25-.72.38-.43.22-.36.43.02.63.21.11.42.22.64.32,4.07,2.04,8.12,4.12,12.22,6.08,1.47.7,2.02,1.63,1.98,3.25-.1,4.04-.03,8.08-.03,12.12,0,.37,0,.73,0,1.32Z"/>
    <path class="cls-1" d="m62.6,92.01c0-2.78.03-5.57-.01-8.35-.01-1,.36-1.66,1.19-2.18,9.28-5.7,18.56-11.42,27.84-17.12,1.06-.65,1.97-.57,2.57.16.68.82.55,1.7-.43,2.69-6.86,6.87-13.72,13.73-20.6,20.59-.54.53-.96,1.12-1.3,1.8-1.91,3.86-3.85,7.71-5.77,11.57-.35.71-.81,1.26-1.65,1.35-1.01.11-1.83-.76-1.84-1.96-.02-2.85,0-5.7,0-8.55Zm18.13-16.67s-.06-.07-.08-.11c-4.66,2.88-9.33,5.76-14,8.63-.49.3-.52.75-.52,1.24,0,2.41,0,4.82,0,7.23,0,.16-.12.41.22.5.67-1.33,1.38-2.65,1.99-4,.69-1.55,1.68-2.83,2.89-4,3.2-3.12,6.33-6.31,9.5-9.46Z"/>
  </g>
</svg>