<?xml version="1.0" encoding="UTF-8"?>
<svg id="Layer_1" data-name="Layer 1" xmlns="http://www.w3.org/2000/svg" viewBox="0 0 150 150">
  <defs>
    <style>
      .cls-1 {
        fill: #fff;
      }

      .cls-2 {
        fill: #00b3ff;
      }
    </style>
  </defs>
  <circle class="cls-2" cx="71.41" cy="64.61" r="56.32"/>
  <g>
    <path class="cls-1" d="m86.57,126.71c-6.7-.98-12.24-4.6-17.84-8-8.06-4.9-15.3-10.85-21.82-17.67-8.6-8.98-15.62-19.07-21.02-30.26-4.09-8.47-2.33-19.21,4.18-26.1,1.57-1.66,3.19-3.26,4.82-4.84,2.41-2.33,5.9-2.32,8.3.06,5.33,5.29,10.64,10.6,15.93,15.93,2.49,2.51,2.49,5.97,0,8.53-2.05,2.12-4.17,4.18-6.25,6.26-2,2-2.18,3.52-.63,5.89.92,1.4,1.91,2.75,2.88,4.12.84,1.2.75,2.47-.24,3.21-1.04.77-2.23.55-3.13-.68-1.17-1.59-2.31-3.21-3.39-4.86-2.02-3.08-1.84-6.92.62-9.69,2.09-2.35,4.4-4.51,6.61-6.75,1.53-1.55,1.53-2.07-.03-3.64-4.95-4.95-9.91-9.91-14.86-14.86-1.32-1.31-2.07-1.33-3.37,0-1.69,1.72-3.51,3.31-5.03,5.2-2.92,3.64-4.35,7.85-4.36,12.47-.01,2.94.67,5.78,2,8.44,5.69,11.4,12.96,21.67,22.02,30.64,8.48,8.39,18.1,15.21,28.82,20.44,7.45,3.63,16.53,2.15,22.45-3.64,1.37-1.34,2.71-2.69,4.05-4.05,1.05-1.07,1.05-1.86-.01-2.94-5.14-5.15-10.28-10.29-15.43-15.43-1.06-1.06-1.88-1.05-2.94,0-2.02,2.01-4.02,4.04-6.05,6.04-3.48,3.44-7.29,3.82-11.35,1.13-2.18-1.44-4.3-2.97-6.33-4.63-1.23-1.01-1.46-2.2-.63-3.21.83-1,2.05-1.05,3.29-.07,2.05,1.62,4.16,3.17,6.35,4.6,1.87,1.22,3.7,1.07,5.3-.5,2.15-2.11,4.27-4.27,6.41-6.39,2.75-2.73,6.14-2.73,8.89,0,5.04,5.01,10.07,10.02,15.11,15.04,1.1,1.1,2.05,2.28,2.33,3.9.3,1.7,0,3.32-1.13,4.53-3.09,3.29-6.07,6.73-10.15,8.92-2.63,1.41-5.4,2.34-8.35,2.74-.2.03-.39.09-.58.14h-5.43Z"/>
    <path class="cls-1" d="m126.79,68.98c-.59.72-1.24,1.34-2.28,1.2-1.07-.15-1.74-.92-1.81-2.08-.19-3.14-.39-6.27-1.15-9.35-2.55-10.28-8.26-18.35-17.02-24.25-5.49-3.7-11.6-5.77-18.18-6.46-1.26-.13-2.54-.15-3.81-.22-1.35-.08-2.24-.92-2.24-2.09,0-1.22.94-2.08,2.34-2.07,11.27.06,21.11,3.91,29.48,11.4,7.82,7,12.5,15.77,14.24,26.12.17.99.28,1.98.42,2.97v4.83Z"/>
    <path class="cls-1" d="m83.55,35.75c7.56.33,14.26,2.88,19.99,7.84,6.15,5.33,9.78,12.06,10.97,20.1.2,1.36.32,2.73.28,4.1-.04,1.36-.78,2.3-1.94,2.4-1.17.11-2.17-.75-2.27-2.17-.17-2.34-.33-4.66-.91-6.95-2.82-11.02-12.15-19.32-23.42-20.86-1.4-.19-2.82-.05-4.2-.34-1.05-.22-1.79-1.15-1.74-2.15.06-1.03.85-1.87,1.94-1.98.43-.04.87,0,1.31,0Z"/>
    <path class="cls-1" d="m83.16,47.82c9.62.14,18.32,8.1,19.36,17.7.09.8.21,1.59.17,2.4-.05,1.25-.87,2.2-1.97,2.28-1.15.09-2.16-.77-2.28-2.08-.11-1.27-.15-2.53-.45-3.78-1.71-7.03-7.76-11.98-14.98-12.24-.33-.01-.67-.04-.99-.11-1.08-.27-1.78-1.16-1.72-2.17.06-1.03.94-1.9,2.05-2,.27-.02.54,0,.8,0Z"/>
    <path class="cls-1" d="m82.81,59.91c4.1.15,7.65,3.7,7.8,7.8.05,1.34-.77,2.38-1.97,2.49-1.14.11-2.1-.76-2.29-2.07-.39-2.66-1.29-3.56-3.96-3.96-1.3-.19-2.17-1.16-2.06-2.3.12-1.2,1.15-2.02,2.49-1.97Z"/>
    <path class="cls-1" d="m61.62,89.06c-.03,1.13-1.04,2.1-2.15,2.08-1.12-.02-2.12-1.05-2.09-2.14.03-1.12,1.06-2.12,2.15-2.08,1.13.04,2.12,1.05,2.09,2.15Z"/>
  </g>
</svg>