<?xml version="1.0" encoding="UTF-8"?>
<svg id="Layer_1" data-name="Layer 1" xmlns="http://www.w3.org/2000/svg" viewBox="0 0 150 150">
  <defs>
    <style>
      .cls-1 {
        fill: #fff;
      }

      .cls-2 {
        fill: #00b3ff;
      }
    </style>
  </defs>
  <circle class="cls-2" cx="62.24" cy="84.9" r="56.32"/>
  <g>
    <path class="cls-1" d="m76.2,53.89c-.03-9.66-7-17.35-16.28-18.23-5.72-.55-10.61,1.25-14.7,5.26-.08.08-.16.16-.24.24-1.04,1-2.13,1.1-2.97.27-.86-.85-.79-1.85.22-2.97,1.52-1.68,3.29-3.05,5.29-4.13,10.93-5.91,24.92-1.41,30.35,9.76.29.61.68,1.03,1.29,1.33,7.82,3.86,15.64,7.73,23.44,11.63.76.38,1.32.23,1.98-.15,3.48-1.99,6.97-3.95,10.46-5.91.56-.31,1.12-.65,1.8-.49.84.2,1.39.73,1.52,1.6.14.93-.31,1.58-1.1,2.03-2.28,1.29-4.56,2.58-6.84,3.87-1.7.96-3.42,1.87-5.08,2.88-1.17.72-2.22.75-3.47.11-6.92-3.49-13.88-6.9-20.82-10.33-.32-.16-.69-.55-1.01-.32-.37.27-.11.76-.06,1.15.19,1.38.21,2.78.03,4.14-.11.86.22,1.19.88,1.54,4.12,2.21,8.23,4.46,12.35,6.68.88.47,1.77.94,1.81,2.09.04,1.14-.8,1.67-1.67,2.19-8.67,5.19-17.34,10.4-26.02,15.58-.75.45-1.25,1-1.55,1.82-.44,1.19-.92,2.38-1.43,3.54-1.72,3.91-6.23,5.37-9.87,3.13-.73-.45-1.23-.4-1.92.01-7.85,4.67-15.72,9.31-23.58,13.96-1.66.98-2.76.91-3.41-.24-.65-1.14-.16-2.12,1.49-3.1,7.8-4.61,15.59-9.23,23.41-13.82.77-.45.91-.85.56-1.69-3.17-7.5-6.94-14.69-11.36-21.53-3.85-5.95-4.5-12.32-2.6-19.04.15-.53.4-1.06.7-1.52.58-.89,1.57-1.16,2.45-.75.86.41,1.28,1.36.93,2.38-.54,1.6-.98,3.21-1.16,4.9-.44,4.01.33,7.79,2.46,11.19,4.23,6.73,8.11,13.64,11.27,20.95.45,1.03.89,2.06,1.31,3.1.55,1.35,1.38,2.3,2.98,2.3,1.58,0,2.44-.89,3.04-2.23,3.17-7.08,6.73-13.96,10.58-20.69.6-1.04,1.2-2.07,1.82-3.1,1.8-2.99,2.8-6.19,2.7-9.41Zm-6.44,23.86c.32-.17.64-.33.95-.52,2.41-1.44,4.81-2.88,7.21-4.32,3.46-2.07,6.93-4.14,10.38-6.24.32-.2,1.3-.42.25-1-2.92-1.6-5.85-3.17-8.77-4.75-.48-.26-.82-.28-1.04.33-.93,2.68-2.58,4.96-4.07,7.34-1.82,2.91-3.53,5.89-4.92,9.16Z"/>
    <path class="cls-1" d="m63.78,93.88c.07-1.12.79-1.6,1.54-2.05,5.5-3.27,11-6.55,16.5-9.83,2.28-1.36,4.58-2.7,6.85-4.09.92-.56,1.76-.62,2.75-.15,7.91,3.76,15.84,7.48,23.76,11.23,1.33.63,1.75,1.63,1.24,2.69-.51,1.06-1.57,1.36-2.88.75-7.42-3.48-14.84-6.97-22.24-10.5-.78-.37-1.35-.32-2.07.11-6.16,3.7-12.35,7.37-18.52,11.05-.28.17-.75.25-.74.6.01.43.53.47.84.63,12.19,6.18,24.38,12.35,36.57,18.52.5.25,1.02.5,1.45.84.78.62.92,1.46.49,2.32-.44.88-1.23,1.17-2.18.94-.32-.08-.63-.24-.93-.39-13.56-6.87-27.12-13.74-40.68-20.6-.94-.47-1.79-.98-1.75-2.09Z"/>
    <path class="cls-1" d="m34.54,114.1c-.86-.12-1.47-.52-1.73-1.3-.3-.88-.03-1.65.73-2.17.61-.42,1.29-.75,1.94-1.13,5.94-3.49,11.83-7.05,17.81-10.45,1.19-.67,2.18-.66,3.37-.08,7.58,3.66,15.18,7.29,22.77,10.92,7.22,3.46,14.44,6.91,21.67,10.37.34.16.68.31,1,.5,1.06.62,1.41,1.58.96,2.55-.47,1-1.52,1.37-2.66.85-2.44-1.13-4.87-2.3-7.3-3.46-12.35-5.91-24.71-11.81-37.05-17.75-.75-.36-1.31-.37-2.06.07-5.89,3.49-11.81,6.94-17.72,10.39-.54.32-1.1.64-1.71.69Z"/>
    <path class="cls-1" d="m45.13,53.6c.02-7.36,5.62-12.93,13.08-13,7.02-.07,12.93,6,12.91,13.24-.02,7.11-5.85,12.89-12.98,12.87-7.49-.02-13.02-5.6-13.01-13.12Zm3.73.07c0,5.1,4.21,9.32,9.29,9.29,5.01-.03,9.16-4.22,9.19-9.29.03-4.99-4.21-9.2-9.26-9.2-5.07,0-9.22,4.14-9.22,9.2Z"/>
    <path class="cls-1" d="m126.15,58.72c.04,1.02-.63,1.54-1.4,2-5.24,3.13-10.47,6.27-15.7,9.41-1.12.67-2.25,1.34-3.37,2.02-.25.15-.64.24-.65.56-.03.43.44.46.72.59,4.98,2.5,9.98,4.99,14.96,7.49.43.22.89.42,1.26.72.74.61,1,1.39.58,2.3-.39.84-1.33,1.27-2.26,1.01-.36-.1-.69-.28-1.03-.44-6.26-3.13-12.52-6.26-18.78-9.39-.64-.32-1.28-.65-1.57-1.37-.4-.98-.02-1.86,1.19-2.58,4.39-2.65,8.79-5.29,13.19-7.92,3.24-1.95,6.48-3.91,9.73-5.82,1.53-.9,3.11-.15,3.13,1.44Z"/>
  </g>
</svg>